<svg width="153" height="176" viewBox="0 0 153 176" fill="none" xmlns="http://www.w3.org/2000/svg">
<path d="M151.637 169.138C141.111 156.684 122.249 147.187 99.4537 143.311C97.2243 129.962 93.2437 123.725 93.1396 123.551C94.8753 122.737 96.9697 122.459 99.3611 122.988C102.277 123.644 104.267 125.19 105.475 127.15C105.826 127.721 106.721 127.528 106.825 126.864C106.975 125.892 106.929 124.832 106.597 123.655C105.764 120.728 103.484 118.294 100.514 117.654C98.5743 117.241 96.6457 117.561 95.018 118.425C96.5261 117.121 98.4046 116.057 100.692 115.312C105.629 113.731 109.934 114.502 113.281 116.639C113.848 116.998 114.543 116.477 114.361 115.829C113.802 113.82 112.695 111.849 110.643 110.04C107.187 107 102.377 105.681 98.0073 107.127C96.5994 107.594 95.3189 108.288 94.2042 109.149C94.2852 109.044 94.3739 108.936 94.4549 108.836C97.6756 105.052 101.544 103.417 105.359 103.324C106.188 103.305 106.559 102.229 105.922 101.693C104.568 100.566 102.902 99.6794 100.738 99.2165C95.8705 98.1789 90.7482 99.6369 87.6548 103.533C86.5439 104.925 85.7725 106.495 85.3251 108.115C84.0137 107.054 82.4785 106.233 80.7583 105.747C75.9754 104.389 70.965 106.194 67.6171 109.87C66.1706 111.455 65.3336 113.11 64.8901 114.765C64.6586 115.617 65.6384 116.307 66.3751 115.821C69.5109 113.723 73.5647 112.828 78.336 114.009C78.4671 114.047 78.5944 114.082 78.7256 114.113C77.3177 114.059 75.8751 114.244 74.4519 114.687C70.0586 116.057 66.9189 119.929 65.8813 124.415C65.2874 126.999 65.5034 129.194 66.1745 131.107C66.4175 131.801 67.3741 131.817 67.6595 131.138C69.1676 127.52 72.1877 124.461 77.0477 122.899C79.335 122.162 81.4834 121.935 83.466 122.112C81.6338 122.355 79.8827 123.223 78.552 124.693C76.5077 126.945 76.0796 130.243 77.1094 133.113C77.5221 134.27 78.1161 135.165 78.8104 135.871C79.2733 136.345 80.1064 135.982 80.0563 135.323C79.8827 133.02 80.604 130.629 82.5904 128.392C84.1217 126.675 85.8651 125.572 87.6316 125.325C87.6278 125.325 90.4281 132.203 90.8176 142.127C86.1544 141.649 81.3638 141.382 76.473 141.382C64.4967 141.382 53.1066 142.875 42.8004 145.579C44.9372 99.0121 73.5956 68.1629 73.6303 68.0086C77.1596 70.3421 80.1411 73.9138 82.0697 78.9319C84.5807 85.4505 84.1487 91.3557 81.8768 96.2311C81.225 97.6274 82.7524 99.1046 84.1564 98.4528C86.2546 97.4808 88.2796 96.0112 90.1388 93.832C94.7403 88.4282 96.5261 80.8605 93.9149 74.2648C92.21 69.9603 89.0896 66.6316 85.3058 64.5835C89.7801 65.8255 94.289 68.0896 98.6823 71.5726C108.009 78.9821 112.086 88.162 112.406 97.2841C112.468 98.9966 114.57 99.7642 115.669 98.4451C118.705 94.8194 120.992 90.1986 121.813 84.0619C123.241 73.4124 119.576 62.3772 111.11 55.7623C108.371 53.6177 105.374 52.0324 102.25 50.9833C102.563 51.0141 102.871 51.0489 103.187 51.0797C114.574 52.4104 122.697 57.6947 127.819 64.8573C129.015 66.5275 131.726 65.8139 131.919 63.7735C132.316 59.7929 131.838 55.4961 129.987 50.8367C125.705 40.0522 116.248 31.9986 104.68 31.0189C100.53 30.6679 96.4914 31.1924 92.7578 32.4306C93.1242 28.5117 92.7153 24.4733 91.4386 20.5159C87.8785 9.46917 77.9001 2.07509 66.4291 0.327816C61.3415 -0.443607 56.9483 0.111818 53.0834 1.46952C51.2552 2.1098 51.1703 4.76735 52.9639 5.49249C61.2258 8.82504 68.3268 15.5673 72.2456 26.4906C72.3536 26.7876 72.4539 27.0846 72.5503 27.3778C70.8223 24.5736 68.6006 22.0087 65.8929 19.8294C57.5345 13.0756 45.9555 11.9994 35.9077 15.791C29.9369 18.0435 25.8946 21.4532 23.0288 25.3721C22.1031 26.6372 23.1908 28.3459 24.722 28.0257C33.8017 26.1319 43.8225 27.964 53.2956 35.5008C57.685 38.9877 60.9134 42.8641 63.1351 46.9487C60.2885 43.7165 56.335 41.4331 51.7566 40.7504C44.7405 39.6974 37.7707 43.1418 33.5471 48.8542C31.8539 51.1376 30.8896 53.4248 30.4113 55.6735C30.0873 57.201 31.8886 58.3658 33.1228 57.4054C37.358 54.1114 42.9932 52.3719 49.8936 53.3438C55.5597 54.1423 59.9067 56.4681 63.0232 59.6734C62.4678 60.1478 27.8926 85.948 5.23974 164.942C3.85889 166.253 2.57447 167.619 1.39419 169.015C-0.927795 171.765 1.03548 176 4.62646 176H148.366C151.903 176.019 153.924 171.846 151.637 169.138Z" fill="url(#paint0_linear_122_1321)"/>
<defs>
<linearGradient id="paint0_linear_122_1321" x1="76.4987" y1="-0.0227051" x2="76.4987" y2="176" gradientUnits="userSpaceOnUse">
<stop stop-color="#6AF8FF"/>
<stop offset="1" stop-color="#4CE251"/>
</linearGradient>
</defs>
</svg>
