<svg width="545" height="305" viewBox="0 0 545 305" fill="none" xmlns="http://www.w3.org/2000/svg">
<g opacity="0.8" filter="url(#filter0_f_207_222)">
<path d="M388.918 184.78C388.918 185.452 388.851 186.192 388.784 186.797L386.767 201.383C385.826 208.373 379.575 214.692 372.45 215.767L357.73 217.783C353.025 218.456 346.908 216.439 343.48 213.078L313.972 183.57C294.882 188.343 274.717 182.831 260.803 168.783C239.092 147.004 239.025 111.581 260.803 89.7358C271.356 79.1827 285.404 73.4021 300.327 73.4021C315.249 73.4021 329.297 79.1827 339.85 89.7358C353.831 103.851 359.343 123.949 354.503 142.904L384.011 172.479C386.969 175.303 388.918 180.344 388.918 184.78ZM254.552 129.326C254.552 141.089 258.988 152.785 267.928 161.725C279.96 173.824 297.571 178.193 313.972 173.152C315.786 172.614 317.668 173.084 319.013 174.429L350.605 206.021C351.747 207.163 354.705 208.104 356.251 207.903L370.971 205.886C373.526 205.483 376.416 202.727 376.752 200.173L378.769 185.519C379.037 183.906 378.096 180.949 376.954 179.806L345.295 148.08C343.95 146.735 343.547 144.786 344.085 143.039C349.193 126.839 344.824 109.161 332.725 97.0624C324.121 88.4586 312.56 83.6863 300.327 83.6863C288.026 83.6863 276.532 88.4586 267.928 97.0624C259.055 105.801 254.552 117.563 254.552 129.326Z" fill="url(#paint0_linear_207_222)"/>
<path d="M374.063 164.548C374.063 165.825 373.593 167.102 372.584 168.11L357.125 183.57C355.175 185.519 351.949 185.519 350 183.57C348.05 181.621 348.05 178.395 350 176.445L365.459 160.985C367.409 159.036 370.635 159.036 372.584 160.985C373.593 161.994 374.063 163.271 374.063 164.548Z" fill="url(#paint1_linear_207_222)"/>
<path d="M314.98 128.856C314.98 137.191 308.191 143.98 299.856 143.98C291.521 143.98 284.732 137.191 284.732 128.856C284.732 120.521 291.521 113.732 299.856 113.732C308.191 113.732 314.98 120.521 314.98 128.856ZM294.815 128.856C294.815 131.612 297.1 133.897 299.856 133.897C302.612 133.897 304.897 131.612 304.897 128.856C304.897 126.1 302.612 123.815 299.856 123.815C297.1 123.815 294.815 126.1 294.815 128.856Z" fill="url(#paint2_linear_207_222)"/>
</g>
<path d="M388.918 184.78C388.918 185.452 388.851 186.192 388.784 186.797L386.767 201.383C385.826 208.373 379.575 214.692 372.45 215.767L357.73 217.783C353.025 218.456 346.908 216.439 343.48 213.078L313.972 183.57C294.882 188.343 274.717 182.831 260.803 168.783C239.092 147.004 239.025 111.581 260.803 89.7358C271.356 79.1827 285.404 73.4021 300.327 73.4021C315.249 73.4021 329.297 79.1827 339.85 89.7358C353.831 103.851 359.343 123.949 354.503 142.904L384.011 172.479C386.969 175.303 388.918 180.344 388.918 184.78ZM254.552 129.326C254.552 141.089 258.988 152.785 267.928 161.725C279.96 173.824 297.571 178.193 313.972 173.152C315.786 172.614 317.668 173.084 319.013 174.429L350.605 206.021C351.747 207.163 354.705 208.104 356.251 207.903L370.971 205.886C373.526 205.483 376.416 202.727 376.752 200.173L378.769 185.519C379.037 183.906 378.096 180.949 376.954 179.806L345.295 148.08C343.95 146.735 343.547 144.786 344.085 143.039C349.193 126.839 344.824 109.161 332.725 97.0624C324.121 88.4586 312.56 83.6863 300.327 83.6863C288.026 83.6863 276.532 88.4586 267.928 97.0624C259.055 105.801 254.552 117.563 254.552 129.326Z" fill="url(#paint3_linear_207_222)"/>
<path d="M374.063 164.548C374.063 165.825 373.593 167.102 372.584 168.11L357.125 183.57C355.175 185.519 351.949 185.519 350 183.57C348.05 181.621 348.05 178.395 350 176.445L365.459 160.985C367.409 159.036 370.635 159.036 372.584 160.985C373.593 161.994 374.063 163.271 374.063 164.548Z" fill="url(#paint4_linear_207_222)"/>
<path d="M314.98 128.856C314.98 137.191 308.191 143.98 299.856 143.98C291.521 143.98 284.732 137.191 284.732 128.856C284.732 120.521 291.521 113.732 299.856 113.732C308.191 113.732 314.98 120.521 314.98 128.856ZM294.815 128.856C294.815 131.612 297.1 133.897 299.856 133.897C302.612 133.897 304.897 131.612 304.897 128.856C304.897 126.1 302.612 123.815 299.856 123.815C297.1 123.815 294.815 126.1 294.815 128.856Z" fill="url(#paint5_linear_207_222)"/>
<g opacity="0.4" clip-path="url(#clip0_207_222)">
<path d="M137.732 85.3985C131.96 85.3985 127.281 89.461 127.281 94.4724C127.281 99.4838 131.96 103.546 137.732 103.546H162.34C168.113 103.546 172.792 99.4838 172.792 94.4724C172.792 89.461 168.113 85.3985 162.34 85.3985H137.732Z" fill="url(#paint6_linear_207_222)"/>
<path d="M182.931 124.07C177.159 124.07 172.479 128.132 172.479 133.144C172.479 138.155 177.159 142.218 182.931 142.218H207.539C213.312 142.218 217.991 138.155 217.991 133.144C217.991 128.132 213.312 124.07 207.539 124.07H182.931Z" fill="url(#paint7_linear_207_222)"/>
<path d="M154.613 162.841C148.841 162.841 144.161 166.904 144.161 171.915C144.161 176.927 148.841 180.989 154.613 180.989H179.221C184.994 180.989 189.673 176.927 189.673 171.915C189.673 166.904 184.994 162.841 179.221 162.841H154.613Z" fill="url(#paint8_linear_207_222)"/>
<path d="M200.123 201.612C194.351 201.612 189.671 205.674 189.671 210.686C189.671 215.697 194.351 219.759 200.123 219.759H224.731C230.503 219.759 235.183 215.697 235.183 210.686C235.183 205.674 230.503 201.612 224.731 201.612H200.123Z" fill="url(#paint9_linear_207_222)"/>
<path fill-rule="evenodd" clip-rule="evenodd" d="M224.103 98.0755C221.264 99.6198 216.906 100.773 211.726 100.773C206.546 100.773 202.189 99.6198 199.349 98.0755C196.412 96.4787 195.966 95.0468 195.966 94.4735C195.966 93.9001 196.412 92.4682 199.349 90.8714C202.189 89.3272 206.546 88.1735 211.726 88.1735C216.906 88.1735 221.264 89.3272 224.103 90.8714C227.04 92.4682 227.486 93.9001 227.486 94.4735C227.486 95.0468 227.04 96.4787 224.103 98.0755ZM234.482 94.4735C234.482 101.307 224.294 106.847 211.726 106.847C199.158 106.847 188.97 101.307 188.97 94.4735C188.97 87.6397 199.158 82.0999 211.726 82.0999C224.294 82.0999 234.482 87.6397 234.482 94.4735Z" fill="url(#paint10_linear_207_222)"/>
<path d="M-1.88488 85.2986C-7.65725 85.2986 -12.3367 89.3612 -12.3367 94.3726C-12.3367 99.384 -7.65724 103.447 -1.88487 103.447H22.7232C28.4956 103.447 33.175 99.384 33.175 94.3726C33.175 89.3612 28.4956 85.2986 22.7232 85.2986H-1.88488Z" fill="url(#paint11_linear_207_222)"/>
<path fill-rule="evenodd" clip-rule="evenodd" d="M100.976 98.0755C98.1366 99.6198 93.7788 100.773 88.5991 100.773C83.4194 100.773 79.0616 99.6198 76.2217 98.0755C73.2851 96.4787 72.8391 95.0468 72.8391 94.4735C72.8391 93.9001 73.2851 92.4682 76.2217 90.8714C79.0616 89.3272 83.4194 88.1735 88.5991 88.1735C93.7788 88.1735 98.1366 89.3272 100.976 90.8714C103.913 92.4682 104.359 93.9001 104.359 94.4735C104.359 95.0468 103.913 96.4787 100.976 98.0755ZM111.355 94.4735C111.355 101.307 101.167 106.847 88.5991 106.847C76.0314 106.847 65.8433 101.307 65.8433 94.4735C65.8433 87.6397 76.0314 82.0999 88.5991 82.0999C101.167 82.0999 111.355 87.6397 111.355 94.4735Z" fill="url(#paint12_linear_207_222)"/>
<path d="M-1.88488 124.262C-7.65725 124.262 -12.3367 128.325 -12.3367 133.336C-12.3367 138.348 -7.65724 142.41 -1.88487 142.41H22.7232C28.4956 142.41 33.175 138.348 33.175 133.336C33.175 128.325 28.4956 124.262 22.7232 124.262H-1.88488Z" fill="url(#paint13_linear_207_222)"/>
<path fill-rule="evenodd" clip-rule="evenodd" d="M84.4904 136.939C81.6505 138.483 77.2927 139.637 72.113 139.637C66.9333 139.637 62.5756 138.483 59.7356 136.939C56.799 135.342 56.3531 133.91 56.3531 133.337C56.3531 132.764 56.799 131.332 59.7356 129.735C62.5756 128.191 66.9333 127.037 72.113 127.037C77.2927 127.037 81.6505 128.191 84.4904 129.735C87.427 131.332 87.873 132.764 87.873 133.337C87.873 133.91 87.427 135.342 84.4904 136.939ZM94.8689 133.337C94.8689 140.171 84.6807 145.711 72.113 145.711C59.5453 145.711 49.3572 140.171 49.3572 133.337C49.3572 126.503 59.5453 120.963 72.113 120.963C84.6807 120.963 94.8689 126.503 94.8689 133.337Z" fill="url(#paint14_linear_207_222)"/>
<path fill-rule="evenodd" clip-rule="evenodd" d="M237.066 175.515C234.636 176.976 230.898 178.074 226.433 178.074C221.968 178.074 218.23 176.976 215.799 175.515C213.341 174.038 212.759 172.599 212.759 171.724C212.759 170.85 213.341 169.411 215.799 167.933C218.23 166.472 221.968 165.375 226.433 165.375C230.898 165.375 234.636 166.472 237.066 167.933C239.524 169.411 240.107 170.85 240.107 171.724C240.107 172.599 239.524 174.038 237.066 175.515ZM247.102 171.724C247.102 178.586 237.848 184.148 226.433 184.148C215.017 184.148 205.763 178.586 205.763 171.724C205.763 164.863 215.017 159.301 226.433 159.301C237.848 159.301 247.102 164.863 247.102 171.724Z" fill="url(#paint15_linear_207_222)"/>
<path fill-rule="evenodd" clip-rule="evenodd" d="M286.496 214.287C283.656 215.831 279.298 216.985 274.118 216.985C268.939 216.985 264.581 215.831 261.741 214.287C258.804 212.69 258.358 211.258 258.358 210.685C258.358 210.111 258.804 208.679 261.741 207.083C264.581 205.538 268.939 204.385 274.118 204.385C279.298 204.385 283.656 205.538 286.496 207.083C289.432 208.679 289.878 210.111 289.878 210.685C289.878 211.258 289.432 212.69 286.496 214.287ZM296.874 210.685C296.874 217.518 286.686 223.058 274.118 223.058C261.551 223.058 251.363 217.518 251.363 210.685C251.363 203.851 261.551 198.311 274.118 198.311C286.686 198.311 296.874 203.851 296.874 210.685Z" fill="url(#paint16_linear_207_222)"/>
<path fill-rule="evenodd" clip-rule="evenodd" d="M145.917 136.745C143.077 138.289 138.719 139.443 133.539 139.443C128.36 139.443 124.002 138.289 121.162 136.745C118.225 135.148 117.779 133.716 117.779 133.143C117.779 132.569 118.225 131.137 121.162 129.541C124.002 127.996 128.36 126.843 133.539 126.843C138.719 126.843 143.077 127.996 145.917 129.541C148.853 131.137 149.299 132.569 149.299 133.143C149.299 133.716 148.853 135.148 145.917 136.745ZM156.295 133.143C156.295 139.977 146.107 145.516 133.539 145.516C120.972 145.516 110.783 139.977 110.783 133.143C110.783 126.309 120.972 120.769 133.539 120.769C146.107 120.769 156.295 126.309 156.295 133.143Z" fill="url(#paint17_linear_207_222)"/>
<path fill-rule="evenodd" clip-rule="evenodd" d="M117.603 175.515C114.764 177.059 110.406 178.213 105.226 178.213C100.046 178.213 95.6886 177.059 92.8487 175.515C89.9121 173.918 89.4661 172.486 89.4661 171.913C89.4661 171.34 89.9121 169.908 92.8487 168.311C95.6886 166.767 100.046 165.613 105.226 165.613C110.406 165.613 114.764 166.767 117.603 168.311C120.54 169.908 120.986 171.34 120.986 171.913C120.986 172.486 120.54 173.918 117.603 175.515ZM127.982 171.913C127.982 178.747 117.794 184.287 105.226 184.287C92.6584 184.287 82.4702 178.747 82.4702 171.913C82.4702 165.079 92.6584 159.54 105.226 159.54C117.794 159.54 127.982 165.079 127.982 171.913Z" fill="url(#paint18_linear_207_222)"/>
<path d="M31.067 162.627C25.2947 162.627 20.6152 166.689 20.6152 171.701C20.6152 176.712 25.2947 180.775 31.067 180.775H55.6751C61.4475 180.775 66.1269 176.712 66.1269 171.701C66.1269 166.689 61.4475 162.627 55.6751 162.627H31.067Z" fill="url(#paint19_linear_207_222)"/>
<path fill-rule="evenodd" clip-rule="evenodd" d="M163.114 214.287C160.274 215.831 155.917 216.985 150.737 216.985C145.557 216.985 141.199 215.831 138.359 214.287C135.423 212.69 134.977 211.258 134.977 210.685C134.977 210.112 135.423 208.68 138.359 207.083C141.199 205.539 145.557 204.385 150.737 204.385C155.917 204.385 160.274 205.539 163.114 207.083C166.051 208.68 166.497 210.112 166.497 210.685C166.497 211.258 166.051 212.69 163.114 214.287ZM173.493 210.685C173.493 217.519 163.305 223.059 150.737 223.059C138.169 223.059 127.981 217.519 127.981 210.685C127.981 203.851 138.169 198.311 150.737 198.311C163.305 198.311 173.493 203.851 173.493 210.685Z" fill="url(#paint20_linear_207_222)"/>
<path fill-rule="evenodd" clip-rule="evenodd" d="M-5.86679 175.303C-8.7067 176.847 -13.0645 178.001 -18.2442 178.001C-23.4239 178.001 -27.7816 176.847 -30.6215 175.303C-33.5582 173.706 -34.0041 172.274 -34.0041 171.701C-34.0041 171.128 -33.5582 169.696 -30.6215 168.099C-27.7816 166.555 -23.4239 165.401 -18.2442 165.401C-13.0645 165.401 -8.7067 166.555 -5.86679 168.099C-2.93017 169.696 -2.4842 171.128 -2.4842 171.701C-2.4842 172.274 -2.93017 173.706 -5.86679 175.303ZM4.51168 171.701C4.51168 178.535 -5.67646 184.075 -18.2442 184.075C-30.8119 184.075 -41 178.535 -41 171.701C-41 164.867 -30.8119 159.327 -18.2442 159.327C-5.67646 159.327 4.51168 164.867 4.51168 171.701Z" fill="url(#paint21_linear_207_222)"/>
<path d="M76.6337 201.589C70.8613 201.589 66.1819 205.651 66.1819 210.663C66.1819 215.674 70.8613 219.737 76.6337 219.737H101.242C107.014 219.737 111.694 215.674 111.694 210.663C111.694 205.651 107.014 201.589 101.242 201.589H76.6337Z" fill="url(#paint22_linear_207_222)"/>
<path fill-rule="evenodd" clip-rule="evenodd" d="M39.7018 214.264C36.8619 215.809 32.5042 216.962 27.3244 216.962C22.1447 216.962 17.787 215.809 14.9471 214.264C12.0105 212.668 11.5645 211.236 11.5645 210.662C11.5645 210.089 12.0105 208.657 14.9471 207.06C17.787 205.516 22.1447 204.362 27.3244 204.362C32.5042 204.362 36.8619 205.516 39.7018 207.06C42.6384 208.657 43.0844 210.089 43.0844 210.662C43.0844 211.236 42.6384 212.668 39.7018 214.264ZM50.0803 210.662C50.0803 217.496 39.8921 223.036 27.3244 223.036C14.7567 223.036 4.5686 217.496 4.5686 210.662C4.5686 203.829 14.7567 198.289 27.3244 198.289C39.8921 198.289 50.0803 203.829 50.0803 210.662Z" fill="url(#paint23_linear_207_222)"/>
</g>
<g opacity="0.4" clip-path="url(#clip1_207_222)">
<path d="M475.268 219.602C481.04 219.602 485.719 215.539 485.719 210.528C485.719 205.516 481.04 201.454 475.268 201.454H450.66C444.887 201.454 440.208 205.516 440.208 210.528C440.208 215.539 444.887 219.602 450.66 219.602H475.268Z" fill="url(#paint24_linear_207_222)"/>
<path d="M430.069 180.93C435.841 180.93 440.521 176.868 440.521 171.856C440.521 166.845 435.841 162.782 430.069 162.782H405.461C399.688 162.782 395.009 166.845 395.009 171.856C395.009 176.868 399.688 180.93 405.461 180.93H430.069Z" fill="url(#paint25_linear_207_222)"/>
<path d="M458.387 142.159C464.159 142.159 468.839 138.096 468.839 133.085C468.839 128.073 464.159 124.011 458.387 124.011H433.779C428.006 124.011 423.327 128.073 423.327 133.085C423.327 138.096 428.006 142.159 433.779 142.159H458.387Z" fill="url(#paint26_linear_207_222)"/>
<path d="M412.877 103.388C418.649 103.388 423.329 99.3259 423.329 94.3145C423.329 89.3031 418.649 85.2405 412.877 85.2405H388.269C382.497 85.2405 377.817 89.3031 377.817 94.3145C377.817 99.3259 382.497 103.388 388.269 103.388H412.877Z" fill="url(#paint27_linear_207_222)"/>
<path fill-rule="evenodd" clip-rule="evenodd" d="M400.578 206.861C403.198 205.301 407.22 204.136 412 204.136C416.78 204.136 420.802 205.301 423.422 206.861C426.132 208.474 426.544 209.921 426.544 210.5C426.544 211.079 426.132 212.526 423.422 214.139C420.802 215.699 416.78 216.864 412 216.864C407.22 216.864 403.198 215.699 400.578 214.139C397.868 212.526 397.456 211.079 397.456 210.5C397.456 209.921 397.868 208.474 400.578 206.861ZM391 210.5C391 203.596 400.402 198 412 198C423.598 198 433 203.596 433 210.5C433 217.404 423.598 223 412 223C400.402 223 391 217.404 391 210.5Z" fill="url(#paint28_linear_207_222)"/>
<path fill-rule="evenodd" clip-rule="evenodd" d="M512.024 206.924C514.863 205.38 519.221 204.227 524.401 204.227C529.581 204.227 533.938 205.38 536.778 206.924C539.715 208.521 540.161 209.953 540.161 210.527C540.161 211.1 539.715 212.532 536.778 214.129C533.938 215.673 529.581 216.826 524.401 216.826C519.221 216.826 514.863 215.673 512.024 214.129C509.087 212.532 508.641 211.1 508.641 210.527C508.641 209.953 509.087 208.521 512.024 206.924ZM501.645 210.527C501.645 203.693 511.833 198.153 524.401 198.153C536.969 198.153 547.157 203.693 547.157 210.527C547.157 217.36 536.969 222.9 524.401 222.9C511.833 222.9 501.645 217.36 501.645 210.527Z" fill="url(#paint29_linear_207_222)"/>
<path fill-rule="evenodd" clip-rule="evenodd" d="M528.51 168.061C531.35 166.517 535.707 165.363 540.887 165.363C546.067 165.363 550.424 166.517 553.264 168.061C556.201 169.658 556.647 171.09 556.647 171.663C556.647 172.236 556.201 173.668 553.264 175.265C550.424 176.809 546.067 177.963 540.887 177.963C535.707 177.963 531.35 176.809 528.51 175.265C525.573 173.668 525.127 172.236 525.127 171.663C525.127 171.09 525.573 169.658 528.51 168.061ZM518.131 171.663C518.131 164.829 528.319 159.289 540.887 159.289C553.455 159.289 563.643 164.829 563.643 171.663C563.643 178.497 553.455 184.037 540.887 184.037C528.319 184.037 518.131 178.497 518.131 171.663Z" fill="url(#paint30_linear_207_222)"/>
<path fill-rule="evenodd" clip-rule="evenodd" d="M381.934 129.485C384.364 128.024 388.102 126.926 392.567 126.926C397.032 126.926 400.77 128.024 403.201 129.485C405.659 130.962 406.241 132.401 406.241 133.276C406.241 134.15 405.659 135.589 403.201 137.067C400.77 138.528 397.032 139.625 392.567 139.625C388.102 139.625 384.364 138.528 381.934 137.067C379.476 135.589 378.893 134.15 378.893 133.276C378.893 132.401 379.476 130.962 381.934 129.485ZM371.898 133.276C371.898 126.414 381.152 120.852 392.567 120.852C403.983 120.852 413.237 126.414 413.237 133.276C413.237 140.137 403.983 145.699 392.567 145.699C381.152 145.699 371.898 140.137 371.898 133.276Z" fill="url(#paint31_linear_207_222)"/>
<path fill-rule="evenodd" clip-rule="evenodd" d="M467.083 168.255C469.923 166.711 474.281 165.557 479.461 165.557C484.64 165.557 488.998 166.711 491.838 168.255C494.775 169.852 495.221 171.284 495.221 171.857C495.221 172.431 494.775 173.863 491.838 175.459C488.998 177.004 484.64 178.157 479.461 178.157C474.281 178.157 469.923 177.004 467.083 175.459C464.147 173.863 463.701 172.431 463.701 171.857C463.701 171.284 464.147 169.852 467.083 168.255ZM456.705 171.857C456.705 165.023 466.893 159.484 479.461 159.484C492.028 159.484 502.217 165.023 502.217 171.857C502.217 178.691 492.028 184.231 479.461 184.231C466.893 184.231 456.705 178.691 456.705 171.857Z" fill="url(#paint32_linear_207_222)"/>
<path fill-rule="evenodd" clip-rule="evenodd" d="M495.397 129.485C498.236 127.941 502.594 126.787 507.774 126.787C512.954 126.787 517.311 127.941 520.151 129.485C523.088 131.082 523.534 132.514 523.534 133.087C523.534 133.66 523.088 135.092 520.151 136.689C517.311 138.233 512.954 139.387 507.774 139.387C502.594 139.387 498.236 138.233 495.397 136.689C492.46 135.092 492.014 133.66 492.014 133.087C492.014 132.514 492.46 131.082 495.397 129.485ZM485.018 133.087C485.018 126.253 495.206 120.713 507.774 120.713C520.342 120.713 530.53 126.253 530.53 133.087C530.53 139.921 520.342 145.46 507.774 145.46C495.206 145.46 485.018 139.921 485.018 133.087Z" fill="url(#paint33_linear_207_222)"/>
<path fill-rule="evenodd" clip-rule="evenodd" d="M449.886 90.7129C452.726 89.1687 457.083 88.015 462.263 88.015C467.443 88.015 471.801 89.1687 474.641 90.7129C477.577 92.3097 478.023 93.7416 478.023 94.315C478.023 94.8883 477.577 96.3202 474.641 97.917C471.801 99.4612 467.443 100.615 462.263 100.615C457.083 100.615 452.726 99.4612 449.886 97.917C446.949 96.3202 446.503 94.8883 446.503 94.315C446.503 93.7416 446.949 92.3097 449.886 90.7129ZM439.507 94.315C439.507 87.4812 449.695 81.9414 462.263 81.9414C474.831 81.9414 485.019 87.4812 485.019 94.315C485.019 101.149 474.831 106.689 462.263 106.689C449.695 106.689 439.507 101.149 439.507 94.315Z" fill="url(#paint34_linear_207_222)"/>
<path d="M536.366 103.411C542.139 103.411 546.818 99.3485 546.818 94.3371C546.818 89.3257 542.139 85.2632 536.366 85.2632H511.758C505.986 85.2632 501.306 89.3257 501.306 94.3371C501.306 99.3485 505.986 103.411 511.758 103.411H536.366Z" fill="url(#paint35_linear_207_222)"/>
</g>
<defs>
<filter id="filter0_f_207_222" x="174" y="3.00002" width="285.32" height="285.32" filterUnits="userSpaceOnUse" color-interpolation-filters="sRGB">
<feFlood flood-opacity="0" result="BackgroundImageFix"/>
<feBlend mode="normal" in="SourceGraphic" in2="BackgroundImageFix" result="shape"/>
<feGaussianBlur stdDeviation="31" result="effect1_foregroundBlur_207_222"/>
</filter>
<linearGradient id="paint0_linear_207_222" x1="244.495" y1="145.657" x2="388.918" y2="145.657" gradientUnits="userSpaceOnUse">
<stop offset="0.130208" stop-color="#6DFDE3"/>
<stop offset="1" stop-color="#007181"/>
</linearGradient>
<linearGradient id="paint1_linear_207_222" x1="362.602" y1="161.322" x2="372.522" y2="170.719" gradientUnits="userSpaceOnUse">
<stop stop-color="#158C94"/>
<stop offset="1" stop-color="#0D818C"/>
</linearGradient>
<linearGradient id="paint2_linear_207_222" x1="284.732" y1="128.856" x2="314.98" y2="128.856" gradientUnits="userSpaceOnUse">
<stop offset="0.130208" stop-color="#6DFDE3"/>
<stop offset="1" stop-color="#007181"/>
</linearGradient>
<linearGradient id="paint3_linear_207_222" x1="244.495" y1="145.657" x2="388.918" y2="145.657" gradientUnits="userSpaceOnUse">
<stop offset="0.130208" stop-color="#6DFDE3"/>
<stop offset="1" stop-color="#007181"/>
</linearGradient>
<linearGradient id="paint4_linear_207_222" x1="362.602" y1="161.322" x2="372.522" y2="170.719" gradientUnits="userSpaceOnUse">
<stop stop-color="#158C94"/>
<stop offset="1" stop-color="#0D818C"/>
</linearGradient>
<linearGradient id="paint5_linear_207_222" x1="284.732" y1="128.856" x2="314.98" y2="128.856" gradientUnits="userSpaceOnUse">
<stop offset="0.130208" stop-color="#6DFDE3"/>
<stop offset="1" stop-color="#007181"/>
</linearGradient>
<linearGradient id="paint6_linear_207_222" x1="127.281" y1="94.4724" x2="172.792" y2="94.4724" gradientUnits="userSpaceOnUse">
<stop stop-color="#3BC2B8"/>
<stop offset="1" stop-color="white"/>
</linearGradient>
<linearGradient id="paint7_linear_207_222" x1="172.479" y1="133.144" x2="217.991" y2="133.144" gradientUnits="userSpaceOnUse">
<stop stop-color="#3BC2B8"/>
<stop offset="1" stop-color="white"/>
</linearGradient>
<linearGradient id="paint8_linear_207_222" x1="144.161" y1="171.915" x2="189.673" y2="171.915" gradientUnits="userSpaceOnUse">
<stop stop-color="#3BC2B8"/>
<stop offset="1" stop-color="white"/>
</linearGradient>
<linearGradient id="paint9_linear_207_222" x1="189.671" y1="210.686" x2="235.183" y2="210.686" gradientUnits="userSpaceOnUse">
<stop stop-color="#3BC2B8"/>
<stop offset="1" stop-color="white"/>
</linearGradient>
<linearGradient id="paint10_linear_207_222" x1="188.97" y1="94.4735" x2="234.482" y2="94.4735" gradientUnits="userSpaceOnUse">
<stop stop-color="#3BC2B8"/>
<stop offset="1" stop-color="white"/>
</linearGradient>
<linearGradient id="paint11_linear_207_222" x1="-12.3367" y1="94.3726" x2="33.175" y2="94.3726" gradientUnits="userSpaceOnUse">
<stop stop-color="#3BC2B8"/>
<stop offset="1" stop-color="white"/>
</linearGradient>
<linearGradient id="paint12_linear_207_222" x1="65.8433" y1="94.4735" x2="111.355" y2="94.4735" gradientUnits="userSpaceOnUse">
<stop stop-color="#3BC2B8"/>
<stop offset="1" stop-color="white"/>
</linearGradient>
<linearGradient id="paint13_linear_207_222" x1="-12.3367" y1="133.336" x2="33.175" y2="133.336" gradientUnits="userSpaceOnUse">
<stop stop-color="#3BC2B8"/>
<stop offset="1" stop-color="white"/>
</linearGradient>
<linearGradient id="paint14_linear_207_222" x1="49.3572" y1="133.337" x2="94.8689" y2="133.337" gradientUnits="userSpaceOnUse">
<stop stop-color="#3BC2B8"/>
<stop offset="1" stop-color="white"/>
</linearGradient>
<linearGradient id="paint15_linear_207_222" x1="205.763" y1="171.724" x2="247.102" y2="171.724" gradientUnits="userSpaceOnUse">
<stop stop-color="#3BC2B8"/>
<stop offset="1" stop-color="white"/>
</linearGradient>
<linearGradient id="paint16_linear_207_222" x1="251.363" y1="210.685" x2="296.874" y2="210.685" gradientUnits="userSpaceOnUse">
<stop stop-color="#3BC2B8"/>
<stop offset="1" stop-color="white"/>
</linearGradient>
<linearGradient id="paint17_linear_207_222" x1="110.783" y1="133.143" x2="156.295" y2="133.143" gradientUnits="userSpaceOnUse">
<stop stop-color="#3BC2B8"/>
<stop offset="1" stop-color="white"/>
</linearGradient>
<linearGradient id="paint18_linear_207_222" x1="82.4702" y1="171.913" x2="127.982" y2="171.913" gradientUnits="userSpaceOnUse">
<stop stop-color="#3BC2B8"/>
<stop offset="1" stop-color="white"/>
</linearGradient>
<linearGradient id="paint19_linear_207_222" x1="20.6152" y1="171.701" x2="66.1269" y2="171.701" gradientUnits="userSpaceOnUse">
<stop stop-color="#3BC2B8"/>
<stop offset="1" stop-color="white"/>
</linearGradient>
<linearGradient id="paint20_linear_207_222" x1="127.981" y1="210.685" x2="173.493" y2="210.685" gradientUnits="userSpaceOnUse">
<stop stop-color="#3BC2B8"/>
<stop offset="1" stop-color="white"/>
</linearGradient>
<linearGradient id="paint21_linear_207_222" x1="-41" y1="171.701" x2="4.51168" y2="171.701" gradientUnits="userSpaceOnUse">
<stop stop-color="#3BC2B8"/>
<stop offset="1" stop-color="white"/>
</linearGradient>
<linearGradient id="paint22_linear_207_222" x1="66.1819" y1="210.663" x2="111.694" y2="210.663" gradientUnits="userSpaceOnUse">
<stop stop-color="#3BC2B8"/>
<stop offset="1" stop-color="white"/>
</linearGradient>
<linearGradient id="paint23_linear_207_222" x1="4.5686" y1="210.662" x2="50.0803" y2="210.662" gradientUnits="userSpaceOnUse">
<stop stop-color="#3BC2B8"/>
<stop offset="1" stop-color="white"/>
</linearGradient>
<linearGradient id="paint24_linear_207_222" x1="485.719" y1="210.528" x2="440.208" y2="210.528" gradientUnits="userSpaceOnUse">
<stop stop-color="#3BC2B8"/>
<stop offset="1" stop-color="white"/>
</linearGradient>
<linearGradient id="paint25_linear_207_222" x1="440.521" y1="171.856" x2="395.009" y2="171.856" gradientUnits="userSpaceOnUse">
<stop stop-color="#3BC2B8"/>
<stop offset="1" stop-color="white"/>
</linearGradient>
<linearGradient id="paint26_linear_207_222" x1="468.839" y1="133.085" x2="423.327" y2="133.085" gradientUnits="userSpaceOnUse">
<stop stop-color="#3BC2B8"/>
<stop offset="1" stop-color="white"/>
</linearGradient>
<linearGradient id="paint27_linear_207_222" x1="423.329" y1="94.3145" x2="377.817" y2="94.3145" gradientUnits="userSpaceOnUse">
<stop stop-color="#3BC2B8"/>
<stop offset="1" stop-color="white"/>
</linearGradient>
<linearGradient id="paint28_linear_207_222" x1="433" y1="210.5" x2="391" y2="210.5" gradientUnits="userSpaceOnUse">
<stop stop-color="#3BC2B8"/>
<stop offset="1" stop-color="white"/>
</linearGradient>
<linearGradient id="paint29_linear_207_222" x1="547.157" y1="210.527" x2="501.645" y2="210.527" gradientUnits="userSpaceOnUse">
<stop stop-color="#3BC2B8"/>
<stop offset="1" stop-color="white"/>
</linearGradient>
<linearGradient id="paint30_linear_207_222" x1="563.643" y1="171.663" x2="518.131" y2="171.663" gradientUnits="userSpaceOnUse">
<stop stop-color="#3BC2B8"/>
<stop offset="1" stop-color="white"/>
</linearGradient>
<linearGradient id="paint31_linear_207_222" x1="413.237" y1="133.276" x2="371.898" y2="133.276" gradientUnits="userSpaceOnUse">
<stop stop-color="#3BC2B8"/>
<stop offset="1" stop-color="white"/>
</linearGradient>
<linearGradient id="paint32_linear_207_222" x1="502.217" y1="171.857" x2="456.705" y2="171.857" gradientUnits="userSpaceOnUse">
<stop stop-color="#3BC2B8"/>
<stop offset="1" stop-color="white"/>
</linearGradient>
<linearGradient id="paint33_linear_207_222" x1="530.53" y1="133.087" x2="485.018" y2="133.087" gradientUnits="userSpaceOnUse">
<stop stop-color="#3BC2B8"/>
<stop offset="1" stop-color="white"/>
</linearGradient>
<linearGradient id="paint34_linear_207_222" x1="485.019" y1="94.315" x2="439.507" y2="94.315" gradientUnits="userSpaceOnUse">
<stop stop-color="#3BC2B8"/>
<stop offset="1" stop-color="white"/>
</linearGradient>
<linearGradient id="paint35_linear_207_222" x1="546.818" y1="94.3371" x2="501.306" y2="94.3371" gradientUnits="userSpaceOnUse">
<stop stop-color="#3BC2B8"/>
<stop offset="1" stop-color="white"/>
</linearGradient>
<clipPath id="clip0_207_222">
<rect width="226" height="483" fill="white" transform="matrix(0 1 1 0 -180 0)"/>
</clipPath>
<clipPath id="clip1_207_222">
<rect width="226" height="483" fill="white" transform="matrix(0 -1 -1 0 793 305)"/>
</clipPath>
</defs>
</svg>
