<svg width="694" height="293" viewBox="0 0 694 293" fill="none" xmlns="http://www.w3.org/2000/svg">
<g clip-path="url(#clip0_136_1616)">
<g opacity="0.8" filter="url(#filter0_f_136_1616)">
<path d="M428.918 184.78C428.918 185.452 428.851 186.191 428.784 186.796L426.767 201.382C425.826 208.373 419.575 214.691 412.45 215.767L397.73 217.783C393.025 218.455 386.908 216.439 383.48 213.078L353.972 183.57C334.882 188.342 314.717 182.831 300.803 168.782C279.092 147.004 279.025 111.581 300.803 89.7356C311.356 79.1826 325.404 73.4019 340.327 73.4019C355.249 73.4019 369.297 79.1826 379.85 89.7356C393.831 103.851 399.343 123.949 394.503 142.904L424.011 172.479C426.969 175.302 428.918 180.344 428.918 184.78ZM294.552 129.326C294.552 141.089 298.988 152.785 307.928 161.725C319.96 173.824 337.571 178.193 353.972 173.151C355.786 172.614 357.668 173.084 359.013 174.429L390.605 206.02C391.747 207.163 394.705 208.104 396.251 207.902L410.971 205.886C413.526 205.483 416.416 202.727 416.752 200.173L418.769 185.519C419.037 183.906 418.096 180.949 416.954 179.806L385.295 148.08C383.95 146.735 383.547 144.786 384.085 143.038C389.193 126.839 384.824 109.161 372.725 97.0622C364.121 88.4585 352.56 83.6861 340.327 83.6861C328.026 83.6861 316.532 88.4585 307.928 97.0622C299.055 105.8 294.552 117.563 294.552 129.326Z" fill="url(#paint0_linear_136_1616)"/>
<path d="M414.063 164.548C414.063 165.825 413.593 167.102 412.584 168.11L397.125 183.57C395.175 185.52 391.949 185.52 390 183.57C388.05 181.621 388.05 178.395 390 176.445L405.459 160.985C407.409 159.036 410.635 159.036 412.584 160.985C413.593 161.994 414.063 163.271 414.063 164.548Z" fill="url(#paint1_linear_136_1616)"/>
<path d="M354.979 128.856C354.979 137.191 348.191 143.979 339.856 143.979C331.521 143.979 324.732 137.191 324.732 128.856C324.732 120.521 331.521 113.732 339.856 113.732C348.191 113.732 354.979 120.521 354.979 128.856ZM334.814 128.856C334.814 131.612 337.1 133.897 339.856 133.897C342.612 133.897 344.897 131.612 344.897 128.856C344.897 126.1 342.612 123.814 339.856 123.814C337.1 123.814 334.814 126.1 334.814 128.856Z" fill="url(#paint2_linear_136_1616)"/>
</g>
<path d="M428.918 184.78C428.918 185.452 428.851 186.191 428.784 186.796L426.767 201.382C425.826 208.373 419.575 214.691 412.45 215.767L397.73 217.783C393.025 218.455 386.908 216.439 383.48 213.078L353.972 183.57C334.882 188.342 314.717 182.831 300.803 168.782C279.092 147.004 279.025 111.581 300.803 89.7356C311.356 79.1826 325.404 73.4019 340.327 73.4019C355.249 73.4019 369.297 79.1826 379.85 89.7356C393.831 103.851 399.343 123.949 394.503 142.904L424.011 172.479C426.969 175.302 428.918 180.344 428.918 184.78ZM294.552 129.326C294.552 141.089 298.988 152.785 307.928 161.725C319.96 173.824 337.571 178.193 353.972 173.151C355.786 172.614 357.668 173.084 359.013 174.429L390.605 206.02C391.747 207.163 394.705 208.104 396.251 207.902L410.971 205.886C413.526 205.483 416.416 202.727 416.752 200.173L418.769 185.519C419.037 183.906 418.096 180.949 416.954 179.806L385.295 148.08C383.95 146.735 383.547 144.786 384.085 143.038C389.193 126.839 384.824 109.161 372.725 97.0622C364.121 88.4585 352.56 83.6861 340.327 83.6861C328.026 83.6861 316.532 88.4585 307.928 97.0622C299.055 105.8 294.552 117.563 294.552 129.326Z" fill="url(#paint3_linear_136_1616)"/>
<path d="M414.063 164.548C414.063 165.825 413.593 167.102 412.584 168.11L397.125 183.57C395.175 185.52 391.949 185.52 390 183.57C388.05 181.621 388.05 178.395 390 176.445L405.459 160.985C407.409 159.036 410.635 159.036 412.584 160.985C413.593 161.994 414.063 163.271 414.063 164.548Z" fill="url(#paint4_linear_136_1616)"/>
<path d="M354.979 128.856C354.979 137.191 348.191 143.979 339.856 143.979C331.521 143.979 324.732 137.191 324.732 128.856C324.732 120.521 331.521 113.732 339.856 113.732C348.191 113.732 354.979 120.521 354.979 128.856ZM334.814 128.856C334.814 131.612 337.1 133.897 339.856 133.897C342.612 133.897 344.897 131.612 344.897 128.856C344.897 126.1 342.612 123.814 339.856 123.814C337.1 123.814 334.814 126.1 334.814 128.856Z" fill="url(#paint5_linear_136_1616)"/>
<g opacity="0.4" clip-path="url(#clip1_136_1616)">
<path d="M177.732 85.3984C171.96 85.3984 167.28 89.461 167.28 94.4724C167.28 99.4838 171.96 103.546 177.732 103.546H202.34C208.113 103.546 212.792 99.4838 212.792 94.4724C212.792 89.461 208.113 85.3984 202.34 85.3984H177.732Z" fill="url(#paint6_linear_136_1616)"/>
<path d="M222.931 124.07C217.159 124.07 212.479 128.132 212.479 133.144C212.479 138.155 217.159 142.218 222.931 142.218H247.539C253.312 142.218 257.991 138.155 257.991 133.144C257.991 128.132 253.312 124.07 247.539 124.07H222.931Z" fill="url(#paint7_linear_136_1616)"/>
<path d="M194.613 162.841C188.841 162.841 184.161 166.904 184.161 171.915C184.161 176.927 188.841 180.989 194.613 180.989H219.221C224.993 180.989 229.673 176.927 229.673 171.915C229.673 166.904 224.993 162.841 219.221 162.841H194.613Z" fill="url(#paint8_linear_136_1616)"/>
<path d="M240.123 201.611C234.35 201.611 229.671 205.674 229.671 210.685C229.671 215.697 234.35 219.759 240.123 219.759H264.731C270.503 219.759 275.183 215.697 275.183 210.685C275.183 205.674 270.503 201.611 264.731 201.611H240.123Z" fill="url(#paint9_linear_136_1616)"/>
<path fill-rule="evenodd" clip-rule="evenodd" d="M264.103 98.0758C261.264 99.62 256.906 100.774 251.726 100.774C246.546 100.774 242.189 99.62 239.349 98.0758C236.412 96.479 235.966 95.047 235.966 94.4737C235.966 93.9004 236.412 92.4684 239.349 90.8716C242.189 89.3274 246.546 88.1737 251.726 88.1737C256.906 88.1737 261.264 89.3274 264.103 90.8716C267.04 92.4684 267.486 93.9004 267.486 94.4737C267.486 95.047 267.04 96.479 264.103 98.0758ZM274.482 94.4737C274.482 101.307 264.294 106.847 251.726 106.847C239.158 106.847 228.97 101.307 228.97 94.4737C228.97 87.6399 239.158 82.1001 251.726 82.1001C264.294 82.1001 274.482 87.6399 274.482 94.4737Z" fill="url(#paint10_linear_136_1616)"/>
<path d="M38.1151 85.2988C32.3428 85.2988 27.6633 89.3614 27.6633 94.3728C27.6633 99.3842 32.3428 103.447 38.1151 103.447H62.7232C68.4956 103.447 73.175 99.3842 73.175 94.3728C73.175 89.3614 68.4956 85.2988 62.7232 85.2988H38.1151Z" fill="url(#paint11_linear_136_1616)"/>
<path fill-rule="evenodd" clip-rule="evenodd" d="M140.976 98.0758C138.137 99.62 133.779 100.774 128.599 100.774C123.419 100.774 119.062 99.62 116.222 98.0758C113.285 96.479 112.839 95.047 112.839 94.4737C112.839 93.9004 113.285 92.4684 116.222 90.8716C119.062 89.3274 123.419 88.1737 128.599 88.1737C133.779 88.1737 138.137 89.3274 140.976 90.8716C143.913 92.4684 144.359 93.9004 144.359 94.4737C144.359 95.047 143.913 96.479 140.976 98.0758ZM151.355 94.4737C151.355 101.307 141.167 106.847 128.599 106.847C116.031 106.847 105.843 101.307 105.843 94.4737C105.843 87.6399 116.031 82.1001 128.599 82.1001C141.167 82.1001 151.355 87.6399 151.355 94.4737Z" fill="url(#paint12_linear_136_1616)"/>
<path d="M38.1151 124.262C32.3428 124.262 27.6633 128.325 27.6633 133.336C27.6633 138.348 32.3428 142.41 38.1151 142.41H62.7232C68.4956 142.41 73.175 138.348 73.175 133.336C73.175 128.325 68.4956 124.262 62.7232 124.262H38.1151Z" fill="url(#paint13_linear_136_1616)"/>
<path fill-rule="evenodd" clip-rule="evenodd" d="M124.49 136.939C121.65 138.483 117.293 139.637 112.113 139.637C106.933 139.637 102.576 138.483 99.7356 136.939C96.799 135.342 96.3531 133.91 96.3531 133.337C96.3531 132.764 96.799 131.332 99.7356 129.735C102.576 128.191 106.933 127.037 112.113 127.037C117.293 127.037 121.65 128.191 124.49 129.735C127.427 131.332 127.873 132.764 127.873 133.337C127.873 133.91 127.427 135.342 124.49 136.939ZM134.869 133.337C134.869 140.171 124.681 145.711 112.113 145.711C99.5453 145.711 89.3572 140.171 89.3572 133.337C89.3572 126.503 99.5453 120.963 112.113 120.963C124.681 120.963 134.869 126.503 134.869 133.337Z" fill="url(#paint14_linear_136_1616)"/>
<path fill-rule="evenodd" clip-rule="evenodd" d="M277.066 175.516C274.636 176.976 270.898 178.074 266.433 178.074C261.968 178.074 258.23 176.976 255.799 175.516C253.341 174.038 252.759 172.599 252.759 171.725C252.759 170.85 253.341 169.411 255.799 167.934C258.23 166.473 261.968 165.375 266.433 165.375C270.898 165.375 274.636 166.473 277.066 167.934C279.524 169.411 280.107 170.85 280.107 171.725C280.107 172.599 279.524 174.038 277.066 175.516ZM287.102 171.725C287.102 178.586 277.848 184.148 266.433 184.148C255.017 184.148 245.763 178.586 245.763 171.725C245.763 164.863 255.017 159.301 266.433 159.301C277.848 159.301 287.102 164.863 287.102 171.725Z" fill="url(#paint15_linear_136_1616)"/>
<path fill-rule="evenodd" clip-rule="evenodd" d="M326.496 214.287C323.656 215.831 319.298 216.985 314.118 216.985C308.938 216.985 304.581 215.831 301.741 214.287C298.804 212.69 298.358 211.258 298.358 210.685C298.358 210.111 298.804 208.679 301.741 207.083C304.581 205.538 308.938 204.385 314.118 204.385C319.298 204.385 323.656 205.538 326.496 207.083C329.432 208.679 329.878 210.111 329.878 210.685C329.878 211.258 329.432 212.69 326.496 214.287ZM336.874 210.685C336.874 217.518 326.686 223.058 314.118 223.058C301.55 223.058 291.362 217.518 291.362 210.685C291.362 203.851 301.55 198.311 314.118 198.311C326.686 198.311 336.874 203.851 336.874 210.685Z" fill="url(#paint16_linear_136_1616)"/>
<path fill-rule="evenodd" clip-rule="evenodd" d="M185.916 136.745C183.076 138.289 178.719 139.443 173.539 139.443C168.359 139.443 164.002 138.289 161.162 136.745C158.225 135.148 157.779 133.716 157.779 133.143C157.779 132.569 158.225 131.137 161.162 129.541C164.002 127.996 168.359 126.843 173.539 126.843C178.719 126.843 183.076 127.996 185.916 129.541C188.853 131.137 189.299 132.569 189.299 133.143C189.299 133.716 188.853 135.148 185.916 136.745ZM196.295 133.143C196.295 139.976 186.107 145.516 173.539 145.516C160.971 145.516 150.783 139.976 150.783 133.143C150.783 126.309 160.971 120.769 173.539 120.769C186.107 120.769 196.295 126.309 196.295 133.143Z" fill="url(#paint17_linear_136_1616)"/>
<path fill-rule="evenodd" clip-rule="evenodd" d="M157.603 175.515C154.764 177.059 150.406 178.213 145.226 178.213C140.046 178.213 135.689 177.059 132.849 175.515C129.912 173.918 129.466 172.486 129.466 171.913C129.466 171.34 129.912 169.908 132.849 168.311C135.689 166.767 140.046 165.613 145.226 165.613C150.406 165.613 154.764 166.767 157.603 168.311C160.54 169.908 160.986 171.34 160.986 171.913C160.986 172.486 160.54 173.918 157.603 175.515ZM167.982 171.913C167.982 178.747 157.794 184.287 145.226 184.287C132.658 184.287 122.47 178.747 122.47 171.913C122.47 165.079 132.658 159.54 145.226 159.54C157.794 159.54 167.982 165.079 167.982 171.913Z" fill="url(#paint18_linear_136_1616)"/>
<path d="M71.067 162.627C65.2947 162.627 60.6152 166.689 60.6152 171.701C60.6152 176.712 65.2947 180.775 71.067 180.775H95.6751C101.447 180.775 106.127 176.712 106.127 171.701C106.127 166.689 101.447 162.627 95.6751 162.627H71.067Z" fill="url(#paint19_linear_136_1616)"/>
<path fill-rule="evenodd" clip-rule="evenodd" d="M203.114 214.287C200.274 215.831 195.917 216.985 190.737 216.985C185.557 216.985 181.199 215.831 178.359 214.287C175.423 212.69 174.977 211.258 174.977 210.685C174.977 210.112 175.423 208.68 178.359 207.083C181.199 205.539 185.557 204.385 190.737 204.385C195.917 204.385 200.274 205.539 203.114 207.083C206.051 208.68 206.497 210.112 206.497 210.685C206.497 211.258 206.051 212.69 203.114 214.287ZM213.493 210.685C213.493 217.519 203.305 223.059 190.737 223.059C178.169 223.059 167.981 217.519 167.981 210.685C167.981 203.851 178.169 198.312 190.737 198.312C203.305 198.312 213.493 203.851 213.493 210.685Z" fill="url(#paint20_linear_136_1616)"/>
<path fill-rule="evenodd" clip-rule="evenodd" d="M34.1332 175.303C31.2933 176.848 26.9355 178.001 21.7558 178.001C16.5761 178.001 12.2184 176.848 9.37847 175.303C6.44185 173.706 5.99588 172.275 5.99588 171.701C5.99588 171.128 6.44185 169.696 9.37847 168.099C12.2184 166.555 16.5761 165.401 21.7558 165.401C26.9355 165.401 31.2933 166.555 34.1332 168.099C37.0698 169.696 37.5158 171.128 37.5158 171.701C37.5158 172.275 37.0698 173.706 34.1332 175.303ZM44.5117 171.701C44.5117 178.535 34.3235 184.075 21.7558 184.075C9.18814 184.075 -1 178.535 -1 171.701C-1 164.867 9.18814 159.328 21.7558 159.328C34.3235 159.328 44.5117 164.867 44.5117 171.701Z" fill="url(#paint21_linear_136_1616)"/>
<path d="M116.634 201.589C110.861 201.589 106.182 205.651 106.182 210.663C106.182 215.674 110.861 219.737 116.634 219.737H141.242C147.014 219.737 151.694 215.674 151.694 210.663C151.694 205.651 147.014 201.589 141.242 201.589H116.634Z" fill="url(#paint22_linear_136_1616)"/>
<path fill-rule="evenodd" clip-rule="evenodd" d="M79.7018 214.264C76.8619 215.808 72.5042 216.962 67.3244 216.962C62.1447 216.962 57.787 215.808 54.9471 214.264C52.0105 212.667 51.5645 211.235 51.5645 210.662C51.5645 210.089 52.0105 208.657 54.9471 207.06C57.787 205.516 62.1447 204.362 67.3244 204.362C72.5042 204.362 76.8619 205.516 79.7018 207.06C82.6384 208.657 83.0844 210.089 83.0844 210.662C83.0844 211.235 82.6384 212.667 79.7018 214.264ZM90.0803 210.662C90.0803 217.496 79.8921 223.036 67.3244 223.036C54.7567 223.036 44.5686 217.496 44.5686 210.662C44.5686 203.828 54.7567 198.289 67.3244 198.289C79.8921 198.289 90.0803 203.828 90.0803 210.662Z" fill="url(#paint23_linear_136_1616)"/>
</g>
<g opacity="0.4" clip-path="url(#clip2_136_1616)">
<path d="M515.268 219.602C521.04 219.602 525.72 215.539 525.72 210.528C525.72 205.516 521.04 201.454 515.268 201.454H490.66C484.887 201.454 480.208 205.516 480.208 210.528C480.208 215.539 484.887 219.602 490.66 219.602H515.268Z" fill="url(#paint24_linear_136_1616)"/>
<path d="M470.069 180.93C475.841 180.93 480.521 176.868 480.521 171.856C480.521 166.845 475.841 162.782 470.069 162.782H445.461C439.688 162.782 435.009 166.845 435.009 171.856C435.009 176.868 439.688 180.93 445.461 180.93H470.069Z" fill="url(#paint25_linear_136_1616)"/>
<path d="M498.387 142.159C504.159 142.159 508.839 138.096 508.839 133.085C508.839 128.073 504.159 124.011 498.387 124.011H473.779C468.007 124.011 463.327 128.073 463.327 133.085C463.327 138.096 468.007 142.159 473.779 142.159H498.387Z" fill="url(#paint26_linear_136_1616)"/>
<path d="M452.877 103.389C458.65 103.389 463.329 99.3261 463.329 94.3147C463.329 89.3033 458.65 85.2408 452.877 85.2408H428.269C422.497 85.2408 417.817 89.3033 417.817 94.3147C417.817 99.3261 422.497 103.389 428.269 103.389H452.877Z" fill="url(#paint27_linear_136_1616)"/>
<path fill-rule="evenodd" clip-rule="evenodd" d="M440.578 206.861C443.198 205.301 447.22 204.136 452 204.136C456.78 204.136 460.802 205.301 463.422 206.861C466.132 208.474 466.544 209.921 466.544 210.5C466.544 211.079 466.132 212.526 463.422 214.139C460.802 215.699 456.78 216.864 452 216.864C447.22 216.864 443.198 215.699 440.578 214.139C437.868 212.526 437.456 211.079 437.456 210.5C437.456 209.921 437.868 208.474 440.578 206.861ZM431 210.5C431 203.596 440.402 198 452 198C463.598 198 473 203.596 473 210.5C473 217.404 463.598 223 452 223C440.402 223 431 217.404 431 210.5Z" fill="url(#paint28_linear_136_1616)"/>
<path d="M654.885 219.701C660.657 219.701 665.336 215.639 665.336 210.627C665.336 205.616 660.657 201.553 654.885 201.553H630.277C624.504 201.553 619.825 205.616 619.825 210.627C619.825 215.639 624.504 219.701 630.277 219.701H654.885Z" fill="url(#paint29_linear_136_1616)"/>
<path fill-rule="evenodd" clip-rule="evenodd" d="M552.024 206.924C554.863 205.38 559.221 204.226 564.401 204.226C569.581 204.226 573.938 205.38 576.778 206.924C579.715 208.521 580.161 209.953 580.161 210.526C580.161 211.1 579.715 212.532 576.778 214.128C573.938 215.673 569.581 216.826 564.401 216.826C559.221 216.826 554.863 215.673 552.024 214.128C549.087 212.532 548.641 211.1 548.641 210.526C548.641 209.953 549.087 208.521 552.024 206.924ZM541.645 210.526C541.645 203.693 551.833 198.153 564.401 198.153C576.969 198.153 587.157 203.693 587.157 210.526C587.157 217.36 576.969 222.9 564.401 222.9C551.833 222.9 541.645 217.36 541.645 210.526Z" fill="url(#paint30_linear_136_1616)"/>
<path d="M654.885 180.738C660.657 180.738 665.336 176.675 665.336 171.664C665.336 166.652 660.657 162.59 654.885 162.59H630.277C624.504 162.59 619.825 166.652 619.825 171.664C619.825 176.675 624.504 180.738 630.277 180.738H654.885Z" fill="url(#paint31_linear_136_1616)"/>
<path fill-rule="evenodd" clip-rule="evenodd" d="M568.509 168.061C571.349 166.517 575.707 165.363 580.887 165.363C586.066 165.363 590.424 166.517 593.264 168.061C596.201 169.658 596.647 171.09 596.647 171.663C596.647 172.236 596.201 173.668 593.264 175.265C590.424 176.809 586.066 177.963 580.887 177.963C575.707 177.963 571.349 176.809 568.509 175.265C565.573 173.668 565.127 172.236 565.127 171.663C565.127 171.09 565.573 169.658 568.509 168.061ZM558.131 171.663C558.131 164.829 568.319 159.289 580.887 159.289C593.454 159.289 603.643 164.829 603.643 171.663C603.643 178.497 593.454 184.037 580.887 184.037C568.319 184.037 558.131 178.497 558.131 171.663Z" fill="url(#paint32_linear_136_1616)"/>
<path fill-rule="evenodd" clip-rule="evenodd" d="M421.934 129.484C424.364 128.024 428.102 126.926 432.567 126.926C437.032 126.926 440.77 128.024 443.201 129.484C445.659 130.962 446.241 132.401 446.241 133.275C446.241 134.15 445.659 135.589 443.201 137.066C440.77 138.527 437.032 139.625 432.567 139.625C428.102 139.625 424.364 138.527 421.934 137.066C419.476 135.589 418.893 134.15 418.893 133.275C418.893 132.401 419.476 130.962 421.934 129.484ZM411.898 133.275C411.898 126.414 421.152 120.852 432.567 120.852C443.983 120.852 453.237 126.414 453.237 133.275C453.237 140.137 443.983 145.699 432.567 145.699C421.152 145.699 411.898 140.137 411.898 133.275Z" fill="url(#paint33_linear_136_1616)"/>
<path fill-rule="evenodd" clip-rule="evenodd" d="M507.084 168.255C509.924 166.711 514.281 165.557 519.461 165.557C524.641 165.557 528.998 166.711 531.838 168.255C534.775 169.852 535.221 171.284 535.221 171.857C535.221 172.431 534.775 173.863 531.838 175.459C528.998 177.004 524.641 178.157 519.461 178.157C514.281 178.157 509.924 177.004 507.084 175.459C504.147 173.863 503.701 172.431 503.701 171.857C503.701 171.284 504.147 169.852 507.084 168.255ZM496.705 171.857C496.705 165.024 506.893 159.484 519.461 159.484C532.029 159.484 542.217 165.024 542.217 171.857C542.217 178.691 532.029 184.231 519.461 184.231C506.893 184.231 496.705 178.691 496.705 171.857Z" fill="url(#paint34_linear_136_1616)"/>
<path fill-rule="evenodd" clip-rule="evenodd" d="M535.397 129.485C538.236 127.941 542.594 126.787 547.774 126.787C552.954 126.787 557.311 127.941 560.151 129.485C563.088 131.082 563.534 132.514 563.534 133.087C563.534 133.66 563.088 135.092 560.151 136.689C557.311 138.233 552.954 139.387 547.774 139.387C542.594 139.387 538.236 138.233 535.397 136.689C532.46 135.092 532.014 133.66 532.014 133.087C532.014 132.514 532.46 131.082 535.397 129.485ZM525.018 133.087C525.018 126.253 535.206 120.713 547.774 120.713C560.342 120.713 570.53 126.253 570.53 133.087C570.53 139.921 560.342 145.46 547.774 145.46C535.206 145.46 525.018 139.921 525.018 133.087Z" fill="url(#paint35_linear_136_1616)"/>
<path d="M621.933 142.373C627.705 142.373 632.385 138.311 632.385 133.299C632.385 128.288 627.705 124.225 621.933 124.225H597.325C591.553 124.225 586.873 128.288 586.873 133.299C586.873 138.311 591.553 142.373 597.325 142.373H621.933Z" fill="url(#paint36_linear_136_1616)"/>
<path fill-rule="evenodd" clip-rule="evenodd" d="M489.886 90.7128C492.726 89.1686 497.083 88.0149 502.263 88.0149C507.443 88.0149 511.801 89.1686 514.641 90.7128C517.577 92.3096 518.023 93.7416 518.023 94.3149C518.023 94.8882 517.577 96.3202 514.641 97.917C511.801 99.4612 507.443 100.615 502.263 100.615C497.083 100.615 492.726 99.4612 489.886 97.917C486.949 96.3202 486.503 94.8882 486.503 94.3149C486.503 93.7416 486.949 92.3096 489.886 90.7128ZM479.507 94.3149C479.507 87.4812 489.695 81.9413 502.263 81.9413C514.831 81.9413 525.019 87.4812 525.019 94.3149C525.019 101.149 514.831 106.688 502.263 106.688C489.695 106.688 479.507 101.149 479.507 94.3149Z" fill="url(#paint37_linear_136_1616)"/>
<path fill-rule="evenodd" clip-rule="evenodd" d="M658.867 129.697C661.707 128.152 666.064 126.999 671.244 126.999C676.424 126.999 680.782 128.152 683.622 129.697C686.558 131.294 687.004 132.725 687.004 133.299C687.004 133.872 686.558 135.304 683.622 136.901C680.782 138.445 676.424 139.599 671.244 139.599C666.064 139.599 661.707 138.445 658.867 136.901C655.93 135.304 655.484 133.872 655.484 133.299C655.484 132.725 655.93 131.294 658.867 129.697ZM648.488 133.299C648.488 126.465 658.676 120.925 671.244 120.925C683.812 120.925 694 126.465 694 133.299C694 140.133 683.812 145.672 671.244 145.672C658.676 145.672 648.488 140.133 648.488 133.299Z" fill="url(#paint38_linear_136_1616)"/>
<path d="M576.366 103.411C582.138 103.411 586.818 99.3486 586.818 94.3372C586.818 89.3258 582.138 85.2632 576.366 85.2632H551.758C545.986 85.2632 541.306 89.3258 541.306 94.3372C541.306 99.3486 545.986 103.411 551.758 103.411H576.366Z" fill="url(#paint39_linear_136_1616)"/>
<path fill-rule="evenodd" clip-rule="evenodd" d="M613.298 90.7358C616.138 89.1916 620.496 88.0379 625.675 88.0379C630.855 88.0379 635.213 89.1916 638.053 90.7358C640.989 92.3326 641.435 93.7645 641.435 94.3378C641.435 94.9112 640.989 96.3431 638.053 97.9399C635.213 99.4841 630.855 100.638 625.675 100.638C620.496 100.638 616.138 99.4841 613.298 97.9399C610.361 96.3431 609.915 94.9112 609.915 94.3378C609.915 93.7645 610.361 92.3326 613.298 90.7358ZM602.919 94.3378C602.919 87.5041 613.108 81.9643 625.675 81.9643C638.243 81.9643 648.431 87.5041 648.431 94.3378C648.431 101.172 638.243 106.711 625.675 106.711C613.108 106.711 602.919 101.172 602.919 94.3378Z" fill="url(#paint40_linear_136_1616)"/>
</g>
</g>
<defs>
<filter id="filter0_f_136_1616" x="214" y="3" width="285.32" height="285.32" filterUnits="userSpaceOnUse" color-interpolation-filters="sRGB">
<feFlood flood-opacity="0" result="BackgroundImageFix"/>
<feBlend mode="normal" in="SourceGraphic" in2="BackgroundImageFix" result="shape"/>
<feGaussianBlur stdDeviation="31" result="effect1_foregroundBlur_136_1616"/>
</filter>
<linearGradient id="paint0_linear_136_1616" x1="284.495" y1="145.657" x2="428.918" y2="145.657" gradientUnits="userSpaceOnUse">
<stop offset="0.130208" stop-color="#6DFDE3"/>
<stop offset="1" stop-color="#007181"/>
</linearGradient>
<linearGradient id="paint1_linear_136_1616" x1="402.602" y1="161.322" x2="412.522" y2="170.72" gradientUnits="userSpaceOnUse">
<stop stop-color="#158C94"/>
<stop offset="1" stop-color="#0D818C"/>
</linearGradient>
<linearGradient id="paint2_linear_136_1616" x1="324.732" y1="128.856" x2="354.979" y2="128.856" gradientUnits="userSpaceOnUse">
<stop offset="0.130208" stop-color="#6DFDE3"/>
<stop offset="1" stop-color="#007181"/>
</linearGradient>
<linearGradient id="paint3_linear_136_1616" x1="284.495" y1="145.657" x2="428.918" y2="145.657" gradientUnits="userSpaceOnUse">
<stop offset="0.130208" stop-color="#6DFDE3"/>
<stop offset="1" stop-color="#007181"/>
</linearGradient>
<linearGradient id="paint4_linear_136_1616" x1="402.602" y1="161.322" x2="412.522" y2="170.72" gradientUnits="userSpaceOnUse">
<stop stop-color="#158C94"/>
<stop offset="1" stop-color="#0D818C"/>
</linearGradient>
<linearGradient id="paint5_linear_136_1616" x1="324.732" y1="128.856" x2="354.979" y2="128.856" gradientUnits="userSpaceOnUse">
<stop offset="0.130208" stop-color="#6DFDE3"/>
<stop offset="1" stop-color="#007181"/>
</linearGradient>
<linearGradient id="paint6_linear_136_1616" x1="167.28" y1="94.4724" x2="212.792" y2="94.4724" gradientUnits="userSpaceOnUse">
<stop stop-color="#3BC2B8"/>
<stop offset="1" stop-color="white"/>
</linearGradient>
<linearGradient id="paint7_linear_136_1616" x1="212.479" y1="133.144" x2="257.991" y2="133.144" gradientUnits="userSpaceOnUse">
<stop stop-color="#3BC2B8"/>
<stop offset="1" stop-color="white"/>
</linearGradient>
<linearGradient id="paint8_linear_136_1616" x1="184.161" y1="171.915" x2="229.673" y2="171.915" gradientUnits="userSpaceOnUse">
<stop stop-color="#3BC2B8"/>
<stop offset="1" stop-color="white"/>
</linearGradient>
<linearGradient id="paint9_linear_136_1616" x1="229.671" y1="210.685" x2="275.183" y2="210.685" gradientUnits="userSpaceOnUse">
<stop stop-color="#3BC2B8"/>
<stop offset="1" stop-color="white"/>
</linearGradient>
<linearGradient id="paint10_linear_136_1616" x1="228.97" y1="94.4737" x2="274.482" y2="94.4737" gradientUnits="userSpaceOnUse">
<stop stop-color="#3BC2B8"/>
<stop offset="1" stop-color="white"/>
</linearGradient>
<linearGradient id="paint11_linear_136_1616" x1="27.6633" y1="94.3728" x2="73.175" y2="94.3728" gradientUnits="userSpaceOnUse">
<stop stop-color="#3BC2B8"/>
<stop offset="1" stop-color="white"/>
</linearGradient>
<linearGradient id="paint12_linear_136_1616" x1="105.843" y1="94.4737" x2="151.355" y2="94.4737" gradientUnits="userSpaceOnUse">
<stop stop-color="#3BC2B8"/>
<stop offset="1" stop-color="white"/>
</linearGradient>
<linearGradient id="paint13_linear_136_1616" x1="27.6633" y1="133.336" x2="73.175" y2="133.336" gradientUnits="userSpaceOnUse">
<stop stop-color="#3BC2B8"/>
<stop offset="1" stop-color="white"/>
</linearGradient>
<linearGradient id="paint14_linear_136_1616" x1="89.3572" y1="133.337" x2="134.869" y2="133.337" gradientUnits="userSpaceOnUse">
<stop stop-color="#3BC2B8"/>
<stop offset="1" stop-color="white"/>
</linearGradient>
<linearGradient id="paint15_linear_136_1616" x1="245.763" y1="171.725" x2="287.102" y2="171.725" gradientUnits="userSpaceOnUse">
<stop stop-color="#3BC2B8"/>
<stop offset="1" stop-color="white"/>
</linearGradient>
<linearGradient id="paint16_linear_136_1616" x1="291.362" y1="210.685" x2="336.874" y2="210.685" gradientUnits="userSpaceOnUse">
<stop stop-color="#3BC2B8"/>
<stop offset="1" stop-color="white"/>
</linearGradient>
<linearGradient id="paint17_linear_136_1616" x1="150.783" y1="133.143" x2="196.295" y2="133.143" gradientUnits="userSpaceOnUse">
<stop stop-color="#3BC2B8"/>
<stop offset="1" stop-color="white"/>
</linearGradient>
<linearGradient id="paint18_linear_136_1616" x1="122.47" y1="171.913" x2="167.982" y2="171.913" gradientUnits="userSpaceOnUse">
<stop stop-color="#3BC2B8"/>
<stop offset="1" stop-color="white"/>
</linearGradient>
<linearGradient id="paint19_linear_136_1616" x1="60.6152" y1="171.701" x2="106.127" y2="171.701" gradientUnits="userSpaceOnUse">
<stop stop-color="#3BC2B8"/>
<stop offset="1" stop-color="white"/>
</linearGradient>
<linearGradient id="paint20_linear_136_1616" x1="167.981" y1="210.685" x2="213.493" y2="210.685" gradientUnits="userSpaceOnUse">
<stop stop-color="#3BC2B8"/>
<stop offset="1" stop-color="white"/>
</linearGradient>
<linearGradient id="paint21_linear_136_1616" x1="-1" y1="171.701" x2="44.5117" y2="171.701" gradientUnits="userSpaceOnUse">
<stop stop-color="#3BC2B8"/>
<stop offset="1" stop-color="white"/>
</linearGradient>
<linearGradient id="paint22_linear_136_1616" x1="106.182" y1="210.663" x2="151.694" y2="210.663" gradientUnits="userSpaceOnUse">
<stop stop-color="#3BC2B8"/>
<stop offset="1" stop-color="white"/>
</linearGradient>
<linearGradient id="paint23_linear_136_1616" x1="44.5686" y1="210.662" x2="90.0803" y2="210.662" gradientUnits="userSpaceOnUse">
<stop stop-color="#3BC2B8"/>
<stop offset="1" stop-color="white"/>
</linearGradient>
<linearGradient id="paint24_linear_136_1616" x1="525.72" y1="210.528" x2="480.208" y2="210.528" gradientUnits="userSpaceOnUse">
<stop stop-color="#3BC2B8"/>
<stop offset="1" stop-color="white"/>
</linearGradient>
<linearGradient id="paint25_linear_136_1616" x1="480.521" y1="171.856" x2="435.009" y2="171.856" gradientUnits="userSpaceOnUse">
<stop stop-color="#3BC2B8"/>
<stop offset="1" stop-color="white"/>
</linearGradient>
<linearGradient id="paint26_linear_136_1616" x1="508.839" y1="133.085" x2="463.327" y2="133.085" gradientUnits="userSpaceOnUse">
<stop stop-color="#3BC2B8"/>
<stop offset="1" stop-color="white"/>
</linearGradient>
<linearGradient id="paint27_linear_136_1616" x1="463.329" y1="94.3147" x2="417.817" y2="94.3147" gradientUnits="userSpaceOnUse">
<stop stop-color="#3BC2B8"/>
<stop offset="1" stop-color="white"/>
</linearGradient>
<linearGradient id="paint28_linear_136_1616" x1="473" y1="210.5" x2="431" y2="210.5" gradientUnits="userSpaceOnUse">
<stop stop-color="#3BC2B8"/>
<stop offset="1" stop-color="white"/>
</linearGradient>
<linearGradient id="paint29_linear_136_1616" x1="665.336" y1="210.627" x2="619.825" y2="210.627" gradientUnits="userSpaceOnUse">
<stop stop-color="#3BC2B8"/>
<stop offset="1" stop-color="white"/>
</linearGradient>
<linearGradient id="paint30_linear_136_1616" x1="587.157" y1="210.526" x2="541.645" y2="210.526" gradientUnits="userSpaceOnUse">
<stop stop-color="#3BC2B8"/>
<stop offset="1" stop-color="white"/>
</linearGradient>
<linearGradient id="paint31_linear_136_1616" x1="665.336" y1="171.664" x2="619.825" y2="171.664" gradientUnits="userSpaceOnUse">
<stop stop-color="#3BC2B8"/>
<stop offset="1" stop-color="white"/>
</linearGradient>
<linearGradient id="paint32_linear_136_1616" x1="603.643" y1="171.663" x2="558.131" y2="171.663" gradientUnits="userSpaceOnUse">
<stop stop-color="#3BC2B8"/>
<stop offset="1" stop-color="white"/>
</linearGradient>
<linearGradient id="paint33_linear_136_1616" x1="453.237" y1="133.275" x2="411.898" y2="133.275" gradientUnits="userSpaceOnUse">
<stop stop-color="#3BC2B8"/>
<stop offset="1" stop-color="white"/>
</linearGradient>
<linearGradient id="paint34_linear_136_1616" x1="542.217" y1="171.857" x2="496.705" y2="171.857" gradientUnits="userSpaceOnUse">
<stop stop-color="#3BC2B8"/>
<stop offset="1" stop-color="white"/>
</linearGradient>
<linearGradient id="paint35_linear_136_1616" x1="570.53" y1="133.087" x2="525.018" y2="133.087" gradientUnits="userSpaceOnUse">
<stop stop-color="#3BC2B8"/>
<stop offset="1" stop-color="white"/>
</linearGradient>
<linearGradient id="paint36_linear_136_1616" x1="632.385" y1="133.299" x2="586.873" y2="133.299" gradientUnits="userSpaceOnUse">
<stop stop-color="#3BC2B8"/>
<stop offset="1" stop-color="white"/>
</linearGradient>
<linearGradient id="paint37_linear_136_1616" x1="525.019" y1="94.3149" x2="479.507" y2="94.3149" gradientUnits="userSpaceOnUse">
<stop stop-color="#3BC2B8"/>
<stop offset="1" stop-color="white"/>
</linearGradient>
<linearGradient id="paint38_linear_136_1616" x1="694" y1="133.299" x2="648.488" y2="133.299" gradientUnits="userSpaceOnUse">
<stop stop-color="#3BC2B8"/>
<stop offset="1" stop-color="white"/>
</linearGradient>
<linearGradient id="paint39_linear_136_1616" x1="586.818" y1="94.3372" x2="541.306" y2="94.3372" gradientUnits="userSpaceOnUse">
<stop stop-color="#3BC2B8"/>
<stop offset="1" stop-color="white"/>
</linearGradient>
<linearGradient id="paint40_linear_136_1616" x1="648.431" y1="94.3378" x2="602.919" y2="94.3378" gradientUnits="userSpaceOnUse">
<stop stop-color="#3BC2B8"/>
<stop offset="1" stop-color="white"/>
</linearGradient>
<clipPath id="clip0_136_1616">
<rect width="694" height="293" fill="white"/>
</clipPath>
<clipPath id="clip1_136_1616">
<rect width="226" height="483" fill="white" transform="matrix(0 1 1 0 -140 0)"/>
</clipPath>
<clipPath id="clip2_136_1616">
<rect width="226" height="483" fill="white" transform="matrix(0 -1 -1 0 833 305)"/>
</clipPath>
</defs>
</svg>
