<svg width="185" height="89" viewBox="0 0 185 89" fill="none" xmlns="http://www.w3.org/2000/svg">
<path d="M185 44.9391C184.775 33.0579 179.84 21.7514 171.277 13.5027C162.715 5.25404 151.226 0.737624 139.332 0.945337C137.08 0.945337 134.673 1.10052 132.343 1.33329C112.771 4.20414 99.7229 18.248 92.5 29.0331C85.1217 18.248 71.9962 4.20414 52.5798 1.33329C50.2498 1.10052 47.9198 0.945337 45.5898 0.945337C33.7101 0.758393 22.2406 5.28404 13.695 13.5305C5.1494 21.7769 0.22464 33.0715 0 44.9391C0.22464 56.8067 5.1494 68.1013 13.695 76.3477C22.2406 84.5942 33.7101 89.1199 45.5898 88.9329C47.9198 88.9329 50.2498 88.7777 52.7351 88.4674C72.3069 85.6741 85.3547 71.6302 92.6553 60.8452C100.034 71.6302 113.081 85.6741 132.576 88.545C134.983 88.7777 137.236 88.9329 139.643 88.9329C151.483 89.0578 162.893 84.5046 171.388 76.2648C179.883 68.025 184.775 56.7659 185 44.9391ZM50.3275 72.8717C48.7741 73.182 46.9878 73.182 45.4345 73.182C37.7078 73.3491 30.2284 70.4575 24.6271 65.1378C19.0257 59.8181 15.7569 52.5017 15.5332 44.7839C15.7769 37.0593 19.0628 29.7429 24.6765 24.4252C30.2902 19.1076 37.778 16.2184 45.5122 16.3858C47.0655 16.3858 48.7741 16.541 50.4051 16.6962C68.8119 19.4119 80.0735 37.4128 83.8791 44.7839C79.9958 52.155 68.7343 70.3888 50.4051 72.8717H50.3275ZM100.966 44.9391C104.771 37.7232 116.033 19.567 134.44 16.8514C135.993 16.541 137.702 16.541 139.255 16.541C143.096 16.4274 146.923 17.0725 150.514 18.4393C154.106 19.8061 157.392 21.8677 160.185 24.506C162.977 27.1443 165.221 30.3073 166.787 33.8137C168.353 37.3201 169.211 41.1008 169.311 44.9391C169.068 52.6638 165.782 59.9802 160.168 65.2978C154.554 70.6155 147.067 73.5046 139.332 73.3372C137.779 73.3372 136.071 73.182 134.517 73.0269C116.188 70.3112 104.849 52.155 101.043 44.9391H100.966ZM32.6973 49.517H60.191V40.5165H32.775V49.517H32.6973ZM142.439 49.517H151.681V40.5165H142.361V31.2832H133.585V40.594H124.265V49.517H133.585V58.6726H142.517V49.5945L142.439 49.517Z" fill="url(#paint0_linear_136_1536)"/>
<defs>
<linearGradient id="paint0_linear_136_1536" x1="92.5" y1="0.938477" x2="92.5" y2="88.9385" gradientUnits="userSpaceOnUse">
<stop stop-color="#6562FF"/>
<stop offset="1" stop-color="#00237D"/>
</linearGradient>
</defs>
</svg>
