<svg width="250" height="250" viewBox="0 0 250 250" fill="none" xmlns="http://www.w3.org/2000/svg">
<path fill-rule="evenodd" clip-rule="evenodd" d="M125 53C85.22 53 53 85.22 53 125C53 156.86 73.61 183.77 102.23 193.31C105.83 193.94 107.18 191.78 107.18 189.89C107.18 188.18 107.09 182.51 107.09 176.48C89 179.81 84.32 172.07 82.88 168.02C82.07 165.95 78.56 159.56 75.5 157.85C72.98 156.5 69.38 153.17 75.41 153.08C81.08 152.99 85.13 158.3 86.48 160.46C92.96 171.35 103.31 168.29 107.45 166.4C108.08 161.72 109.97 158.57 112.04 156.77C96.02 154.97 79.28 148.76 79.28 121.22C79.28 113.39 82.07 106.91 86.66 101.87C85.94 100.07 83.42 92.69 87.38 82.79C87.38 82.79 93.41 80.9 107.18 90.17C112.94 88.55 119.06 87.74 125.18 87.74C131.3 87.74 137.42 88.55 143.18 90.17C156.95 80.81 162.98 82.79 162.98 82.79C166.94 92.69 164.42 100.07 163.7 101.87C168.29 106.91 171.08 113.3 171.08 121.22C171.08 148.85 154.25 154.97 138.23 156.77C140.84 159.02 143.09 163.34 143.09 170.09C143.09 179.72 143 187.46 143 189.89C143 191.78 144.35 194.03 147.95 193.31C176.39 183.77 197 156.77 197 125C197 85.22 164.78 53 125 53Z" fill="url(#paint0_angular_264_214)"/>
<g opacity="0.6" filter="url(#filter0_f_264_214)">
<path fill-rule="evenodd" clip-rule="evenodd" d="M125 53C85.22 53 53 85.2577 53 125.084C53 156.981 73.61 183.923 102.23 193.474C105.83 194.105 107.18 191.942 107.18 190.05C107.18 188.338 107.09 182.661 107.09 176.624C89 179.958 84.32 172.209 82.88 168.154C82.07 166.082 78.56 159.685 75.5 157.973C72.98 156.621 69.38 153.287 75.41 153.197C81.08 153.107 85.13 158.423 86.48 160.586C92.96 171.488 103.31 168.425 107.45 166.533C108.08 161.847 109.97 158.693 112.04 156.891C96.02 155.089 79.28 148.872 79.28 121.3C79.28 113.461 82.07 106.973 86.66 101.927C85.94 100.125 83.42 92.7364 87.38 82.8248C87.38 82.8248 93.41 80.9326 107.18 90.2135C112.94 88.5916 119.06 87.7806 125.18 87.7806C131.3 87.7806 137.42 88.5916 143.18 90.2135C156.95 80.8425 162.98 82.8248 162.98 82.8248C166.94 92.7364 164.42 100.125 163.7 101.927C168.29 106.973 171.08 113.371 171.08 121.3C171.08 148.962 154.25 155.089 138.23 156.891C140.84 159.144 143.09 163.469 143.09 170.227C143.09 179.868 143 187.617 143 190.05C143 191.942 144.35 194.195 147.95 193.474C176.39 183.923 197 156.891 197 125.084C197 85.2577 164.78 53 125 53Z" fill="url(#paint1_angular_264_214)"/>
</g>
<defs>
<filter id="filter0_f_264_214" x="0" y="0" width="250" height="250" filterUnits="userSpaceOnUse" color-interpolation-filters="sRGB">
<feFlood flood-opacity="0" result="BackgroundImageFix"/>
<feBlend mode="normal" in="SourceGraphic" in2="BackgroundImageFix" result="shape"/>
<feGaussianBlur stdDeviation="26.5" result="effect1_foregroundBlur_264_214"/>
</filter>
<radialGradient id="paint0_angular_264_214" cx="0" cy="0" r="1" gradientUnits="userSpaceOnUse" gradientTransform="translate(125 123.224) rotate(90) scale(70.2238 72)">
<stop offset="0.34375" stop-color="#BE2BF1"/>
<stop offset="1" stop-color="#2587E9" stop-opacity="0.17"/>
</radialGradient>
<radialGradient id="paint1_angular_264_214" cx="0" cy="0" r="1" gradientUnits="userSpaceOnUse" gradientTransform="translate(125 123.306) rotate(90) scale(70.3059 72)">
<stop offset="0.34375" stop-color="#DA71FF"/>
<stop offset="1" stop-color="#7DBEFF" stop-opacity="0.17"/>
</radialGradient>
</defs>
</svg>
