<svg xmlns="http://www.w3.org/2000/svg" width="248" height="248" viewBox="0 0 248 248" fill="none">
<path fill-rule="evenodd" clip-rule="evenodd" d="M106.5 11C60.9188 11 24 48.1643 24 94.0488C24 130.798 47.6156 161.837 80.4094 172.841C84.5344 173.568 86.0812 171.077 86.0812 168.897C86.0812 166.924 85.9781 160.384 85.9781 153.429C65.25 157.27 59.8875 148.342 58.2375 143.67C57.3094 141.283 53.2875 133.912 49.7812 131.94C46.8937 130.383 42.7687 126.542 49.6781 126.438C56.175 126.334 60.8156 132.459 62.3625 134.95C69.7875 147.511 81.6469 143.982 86.3906 141.802C87.1125 136.404 89.2781 132.77 91.65 130.694C73.2938 128.618 54.1125 121.455 54.1125 89.6887C54.1125 80.6572 57.3094 73.1828 62.5687 67.3694C61.7438 65.2931 58.8563 56.7807 63.3937 45.3614C63.3937 45.3614 70.3031 43.1814 86.0812 53.8739C92.6813 52.0053 99.6938 51.071 106.706 51.071C113.719 51.071 120.731 52.0053 127.331 53.8739C143.109 43.0776 150.019 45.3614 150.019 45.3614C154.556 56.7807 151.669 65.2931 150.844 67.3694C156.103 73.1828 159.3 80.5534 159.3 89.6887C159.3 121.559 140.016 128.618 121.659 130.694C124.65 133.289 127.228 138.272 127.228 146.058C127.228 157.166 127.125 166.094 127.125 168.897C127.125 171.077 128.672 173.672 132.797 172.841C165.384 161.837 189 130.694 189 94.0488C189 48.1643 152.081 11 106.5 11Z" fill="url(#paint0_angular_136_1577)" fill-opacity="0.75"/>
<defs>
<radialGradient id="paint0_angular_136_1577" cx="0" cy="0" r="1" gradientUnits="userSpaceOnUse" gradientTransform="translate(106.5 92) rotate(90) scale(81 82.5)">
<stop offset="0.34375" stop-color="#DA71FF"/>
<stop offset="1" stop-color="#7DBEFF" stop-opacity="0.17"/>
</radialGradient>
</defs>
</svg>