<svg width="426" height="426" viewBox="0 0 426 426" fill="none" xmlns="http://www.w3.org/2000/svg">
<path d="M123.881 213V161.2H133.575L149.337 185.694L165.099 161.2H174.793V213H165.691V175.852L149.337 200.272H149.041L132.835 176V213H123.881ZM197.967 213.888C192.244 213.888 187.459 211.989 183.611 208.19C179.812 204.391 177.913 199.483 177.913 193.464C177.913 187.791 179.713 182.981 183.315 179.034C186.916 175.087 191.479 173.114 197.005 173.114C202.925 173.114 207.513 175.137 210.769 179.182C214.074 183.178 215.727 188.161 215.727 194.13C215.727 195.215 215.677 196.054 215.579 196.646H186.867C187.36 199.754 188.618 202.196 190.641 203.972C192.663 205.699 195.155 206.562 198.115 206.562C201.963 206.562 205.49 205.008 208.697 201.9L213.951 206.562C209.905 211.446 204.577 213.888 197.967 213.888ZM186.793 190.726H206.847C206.551 187.717 205.539 185.25 203.813 183.326C202.086 181.402 199.792 180.44 196.931 180.44C194.217 180.44 191.948 181.402 190.123 183.326C188.297 185.201 187.187 187.667 186.793 190.726ZM217.689 213V173.928H226.643V182.734C229.405 176.074 234.018 172.892 240.481 173.188V182.66H239.963C235.917 182.66 232.686 183.992 230.269 186.656C227.851 189.271 226.643 193.094 226.643 198.126V213H217.689ZM241.745 213V158.98H250.699V213H241.745ZM255.519 167.934V159.424H265.139V167.934H255.519ZM255.889 213V173.928H264.843V213H255.889ZM269.515 213V173.928H278.469V179.996C281.577 175.408 285.647 173.114 290.679 173.114C295.02 173.114 298.424 174.471 300.891 177.184C303.357 179.897 304.591 183.548 304.591 188.136V213H295.637V190.8C295.637 187.741 294.897 185.398 293.417 183.77C291.986 182.093 289.939 181.254 287.275 181.254C284.66 181.254 282.539 182.117 280.911 183.844C279.283 185.571 278.469 187.939 278.469 190.948V213H269.515ZM60.4337 266V238.016H66.8467V244.323C68.8254 239.553 72.1291 237.274 76.7577 237.486V244.27H76.3867C73.4894 244.27 71.175 245.224 69.4437 247.132C67.7124 249.005 66.8467 251.743 66.8467 255.347V266H60.4337ZM99.4256 266H93.0656V262.555C90.8042 265.24 87.7832 266.583 84.0026 266.583C81.2112 266.583 78.8439 265.823 76.9006 264.304C74.9926 262.749 74.0386 260.594 74.0386 257.838C74.0386 254.835 75.0809 252.556 77.1656 251.001C79.2502 249.446 81.9886 248.669 85.3806 248.669C88.1012 248.669 90.6806 249.058 93.1186 249.835V249.305C93.1186 247.362 92.5179 245.878 91.3166 244.853C90.1506 243.828 88.4546 243.316 86.2286 243.316C83.6846 243.316 81.0169 243.899 78.2256 245.065L76.4766 239.924C79.9392 238.369 83.4902 237.592 87.1296 237.592C91.1929 237.592 94.2492 238.617 96.2986 240.666C98.3832 242.715 99.4256 245.63 99.4256 249.411V266ZM93.2246 255.877V254.287C91.3166 253.545 89.1789 253.174 86.8116 253.174C84.7976 253.174 83.2252 253.563 82.0946 254.34C80.9639 255.117 80.3986 256.213 80.3986 257.626C80.3986 258.898 80.9109 259.905 81.9356 260.647C82.9602 261.389 84.2499 261.76 85.8046 261.76C87.9599 261.76 89.7266 261.212 91.1046 260.117C92.5179 259.022 93.2246 257.608 93.2246 255.877ZM113.572 266.583C110.074 266.583 107.035 265.276 104.456 262.661C101.877 260.011 100.587 256.442 100.587 251.955C100.587 247.503 101.859 243.97 104.403 241.355C106.982 238.74 110.039 237.433 113.572 237.433C117.388 237.433 120.568 239.076 123.112 242.362V227.31H129.525V266H123.112V261.336C120.639 264.834 117.459 266.583 113.572 266.583ZM109.385 258.527C110.975 260.188 112.883 261.018 115.109 261.018C117.335 261.018 119.243 260.17 120.833 258.474C122.423 256.778 123.218 254.605 123.218 251.955C123.218 249.34 122.423 247.203 120.833 245.542C119.243 243.846 117.335 242.998 115.109 242.998C112.848 242.998 110.94 243.828 109.385 245.489C107.83 247.114 107.053 249.305 107.053 252.061C107.053 254.711 107.83 256.866 109.385 258.527ZM132.595 233.723V227.628H139.485V233.723H132.595ZM132.86 266V238.016H139.273V266H132.86ZM155.922 266.636C151.682 266.636 148.149 265.223 145.322 262.396C142.495 259.569 141.082 256.124 141.082 252.061C141.082 247.998 142.513 244.553 145.375 241.726C148.237 238.864 151.788 237.433 156.028 237.433C160.268 237.433 163.801 238.846 166.628 241.673C169.49 244.5 170.921 247.962 170.921 252.061C170.921 256.089 169.49 259.534 166.628 262.396C163.766 265.223 160.197 266.636 155.922 266.636ZM156.028 261.071C158.572 261.071 160.621 260.205 162.176 258.474C163.731 256.743 164.508 254.605 164.508 252.061C164.508 249.552 163.695 247.432 162.07 245.701C160.445 243.934 158.395 243.051 155.922 243.051C153.413 243.051 151.382 243.917 149.827 245.648C148.272 247.379 147.495 249.517 147.495 252.061C147.495 254.534 148.308 256.654 149.933 258.421C151.558 260.188 153.59 261.071 156.028 261.071ZM183.272 274.48V238.016H189.685V242.68C192.158 239.182 195.32 237.433 199.172 237.433C202.705 237.433 205.761 238.758 208.341 241.408C210.92 244.023 212.21 247.574 212.21 252.061C212.21 256.478 210.92 260.011 208.341 262.661C205.761 265.276 202.705 266.583 199.172 266.583C195.32 266.583 192.158 264.94 189.685 261.654V274.48H183.272ZM197.688 261.018C199.949 261.018 201.839 260.188 203.359 258.527C204.913 256.866 205.691 254.676 205.691 251.955C205.691 249.305 204.913 247.15 203.359 245.489C201.804 243.828 199.914 242.998 197.688 242.998C195.462 242.998 193.536 243.846 191.911 245.542C190.321 247.238 189.526 249.411 189.526 252.061C189.526 254.676 190.321 256.831 191.911 258.527C193.536 260.188 195.462 261.018 197.688 261.018ZM213.742 266V238.016H220.155V244.323C222.134 239.553 225.438 237.274 230.066 237.486V244.27H229.695C226.798 244.27 224.484 245.224 222.752 247.132C221.021 249.005 220.155 251.743 220.155 255.347V266H213.742ZM242.972 266.636C238.732 266.636 235.199 265.223 232.372 262.396C229.546 259.569 228.132 256.124 228.132 252.061C228.132 247.998 229.563 244.553 232.425 241.726C235.287 238.864 238.838 237.433 243.078 237.433C247.318 237.433 250.852 238.846 253.678 241.673C256.54 244.5 257.971 247.962 257.971 252.061C257.971 256.089 256.54 259.534 253.678 262.396C250.816 265.223 247.248 266.636 242.972 266.636ZM243.078 261.071C245.622 261.071 247.672 260.205 249.226 258.474C250.781 256.743 251.558 254.605 251.558 252.061C251.558 249.552 250.746 247.432 249.12 245.701C247.495 243.934 245.446 243.051 242.972 243.051C240.464 243.051 238.432 243.917 236.877 245.648C235.323 247.379 234.545 249.517 234.545 252.061C234.545 254.534 235.358 256.654 236.983 258.421C238.609 260.188 240.64 261.071 243.078 261.071ZM268.848 266.477C263.478 266.477 260.792 263.739 260.792 258.262V243.528H257.241V238.016H260.792V230.331H267.205V238.016H274.731V243.528H267.205V257.255C267.205 259.587 268.354 260.753 270.65 260.753C272.028 260.753 273.353 260.435 274.625 259.799V265.046C272.929 266 271.004 266.477 268.848 266.477ZM288.697 266.636C284.457 266.636 280.924 265.223 278.097 262.396C275.271 259.569 273.857 256.124 273.857 252.061C273.857 247.998 275.288 244.553 278.15 241.726C281.012 238.864 284.563 237.433 288.803 237.433C293.043 237.433 296.577 238.846 299.403 241.673C302.265 244.5 303.696 247.962 303.696 252.061C303.696 256.089 302.265 259.534 299.403 262.396C296.541 265.223 292.973 266.636 288.697 266.636ZM288.803 261.071C291.347 261.071 293.397 260.205 294.951 258.474C296.506 256.743 297.283 254.605 297.283 252.061C297.283 249.552 296.471 247.432 294.845 245.701C293.22 243.934 291.171 243.051 288.697 243.051C286.189 243.051 284.157 243.917 282.602 245.648C281.048 247.379 280.27 249.517 280.27 252.061C280.27 254.534 281.083 256.654 282.708 258.421C284.334 260.188 286.365 261.071 288.803 261.071ZM318.124 266.636C313.99 266.636 310.545 265.223 307.789 262.396C305.033 259.569 303.655 256.124 303.655 252.061C303.655 248.033 305.033 244.588 307.789 241.726C310.581 238.864 314.043 237.433 318.177 237.433C322.7 237.433 326.428 239.041 329.36 242.256L325.385 246.549C323.159 244.217 320.739 243.051 318.124 243.051C315.828 243.051 313.902 243.934 312.347 245.701C310.828 247.432 310.068 249.552 310.068 252.061C310.068 254.605 310.846 256.743 312.4 258.474C313.99 260.205 316.004 261.071 318.442 261.071C321.022 261.071 323.442 259.905 325.703 257.573L329.572 261.389C328.053 263.085 326.392 264.392 324.59 265.311C322.824 266.194 320.668 266.636 318.124 266.636ZM342.962 266.636C338.722 266.636 335.189 265.223 332.362 262.396C329.536 259.569 328.122 256.124 328.122 252.061C328.122 247.998 329.553 244.553 332.415 241.726C335.277 238.864 338.828 237.433 343.068 237.433C347.308 237.433 350.842 238.846 353.668 241.673C356.53 244.5 357.961 247.962 357.961 252.061C357.961 256.089 356.53 259.534 353.668 262.396C350.806 265.223 347.238 266.636 342.962 266.636ZM343.068 261.071C345.612 261.071 347.662 260.205 349.216 258.474C350.771 256.743 351.548 254.605 351.548 252.061C351.548 249.552 350.736 247.432 349.11 245.701C347.485 243.934 345.436 243.051 342.962 243.051C340.454 243.051 338.422 243.917 336.867 245.648C335.313 247.379 334.535 249.517 334.535 252.061C334.535 254.534 335.348 256.654 336.973 258.421C338.599 260.188 340.63 261.071 343.068 261.071ZM359.828 266V227.31H366.241V266H359.828Z" fill="url(#paint0_linear_207_208)"/>
<rect x="102.651" y="102.652" width="221" height="221" rx="110.5" stroke="#BF6CE7" stroke-width="3"/>
<rect x="54.5" y="54.5" width="317.304" height="317.304" rx="158.652" stroke="#603674" stroke-width="3"/>
<rect x="1.5" y="1.5" width="423" height="423" rx="211.5" stroke="#BF6CE7" stroke-opacity="0.2" stroke-width="3"/>
<defs>
<linearGradient id="paint0_linear_207_208" x1="213.5" y1="155" x2="213.5" y2="278" gradientUnits="userSpaceOnUse">
<stop offset="0.463542" stop-color="#CF7BF8"/>
<stop offset="1" stop-color="#6D00C2"/>
</linearGradient>
</defs>
</svg>
