<svg width="208" height="208" viewBox="0 0 208 208" fill="none" xmlns="http://www.w3.org/2000/svg">
<g opacity="0.47" filter="url(#filter0_f_136_1794)">
<g filter="url(#filter1_d_136_1794)">
<path d="M103.999 182.14C102.254 182.14 100.51 181.922 98.838 181.413C61.1128 171.019 33.782 135.765 33.782 97.5311V65.6209C33.782 57.4798 39.6698 48.6849 47.2293 45.5593L87.7167 28.9862C98.2565 24.6976 109.814 24.6976 120.281 28.9862L160.768 45.5593C168.328 48.6849 174.216 57.4798 174.216 65.6209V97.5311C174.216 135.692 146.812 170.946 109.16 181.413C107.488 181.922 105.743 182.14 103.999 182.14ZM103.999 36.7639C99.8556 36.7639 95.7849 37.5636 91.8598 39.1627L51.3726 55.7354C47.8836 57.1892 44.6852 61.9139 44.6852 65.6936V97.6038C44.6852 130.968 68.6723 161.788 101.745 170.946C103.199 171.382 104.798 171.382 106.252 170.946C139.325 161.788 163.312 130.968 163.312 97.6038V65.6936C163.312 61.9139 160.114 57.1892 156.625 55.7354L116.138 39.1627C112.213 37.5636 108.142 36.7639 103.999 36.7639Z" fill="url(#paint0_linear_136_1794)"/>
</g>
</g>
<g filter="url(#filter2_d_136_1794)">
<path d="M103.999 182.14C102.254 182.14 100.51 181.922 98.838 181.413C61.1128 171.019 33.782 135.765 33.782 97.5311V65.6209C33.782 57.4798 39.6698 48.6849 47.2293 45.5593L87.7167 28.9862C98.2565 24.6976 109.814 24.6976 120.281 28.9862L160.768 45.5593C168.328 48.6849 174.216 57.4798 174.216 65.6209V97.5311C174.216 135.692 146.812 170.946 109.16 181.413C107.488 181.922 105.743 182.14 103.999 182.14ZM103.999 36.7639C99.8556 36.7639 95.7849 37.5636 91.8598 39.1627L51.3726 55.7354C47.8836 57.1892 44.6852 61.9139 44.6852 65.6936V97.6038C44.6852 130.968 68.6723 161.788 101.745 170.946C103.199 171.382 104.798 171.382 106.252 170.946C139.325 161.788 163.312 130.968 163.312 97.6038V65.6936C163.312 61.9139 160.114 57.1892 156.625 55.7354L116.138 39.1627C112.213 37.5636 108.142 36.7639 103.999 36.7639Z" fill="url(#paint1_linear_136_1794)"/>
</g>
<g filter="url(#filter3_d_136_1794)">
<path d="M103.999 161.888C102.707 161.888 101.415 161.727 100.176 161.35C72.228 153.65 51.9805 127.532 51.9805 99.2074V75.5674C51.9805 69.5362 56.3423 63.0207 61.9427 60.7052L91.937 48.4273C99.7452 45.2502 108.307 45.2502 116.062 48.4273L146.056 60.7052C151.656 63.0207 156.018 69.5362 156.018 75.5674V99.2074C156.018 127.479 135.717 153.596 107.823 161.35C106.584 161.727 105.292 161.888 103.999 161.888ZM103.999 54.1892C100.93 54.1892 97.9142 54.7817 95.0063 55.9664L65.0122 68.2439C62.4274 69.3209 60.0579 72.8211 60.0579 75.6213V99.2613C60.0579 123.978 77.8283 146.811 102.33 153.596C103.407 153.919 104.592 153.919 105.669 153.596C130.17 146.811 147.941 123.978 147.941 99.2613V75.6213C147.941 72.8211 145.571 69.3209 142.986 68.2439L112.992 55.9664C110.084 54.7817 107.069 54.1892 103.999 54.1892Z" fill="url(#paint2_linear_136_1794)"/>
</g>
<g opacity="0.8">
<g filter="url(#filter4_d_136_1794)">
<path d="M103.999 161.888C102.707 161.888 101.415 161.727 100.176 161.35C72.228 153.65 51.9805 127.532 51.9805 99.2074V75.5674C51.9805 69.5362 56.3423 63.0207 61.9427 60.7052L91.937 48.4273C99.7452 45.2502 108.307 45.2502 116.062 48.4273L146.056 60.7052C151.656 63.0207 156.018 69.5362 156.018 75.5674V99.2074C156.018 127.479 135.717 153.596 107.823 161.35C106.584 161.727 105.292 161.888 103.999 161.888ZM103.999 54.1892C100.93 54.1892 97.9142 54.7817 95.0063 55.9664L65.0122 68.2439C62.4274 69.3209 60.0579 72.8211 60.0579 75.6213V99.2613C60.0579 123.978 77.8283 146.811 102.33 153.596C103.407 153.919 104.592 153.919 105.669 153.596C130.17 146.811 147.941 123.978 147.941 99.2613V75.6213C147.941 72.8211 145.571 69.3209 142.986 68.2439L112.992 55.9664C110.084 54.7817 107.069 54.1892 103.999 54.1892Z" fill="url(#paint3_linear_136_1794)"/>
</g>
</g>
<defs>
<filter id="filter0_f_136_1794" x="-132.226" y="-132.226" width="472.452" height="472.452" filterUnits="userSpaceOnUse" color-interpolation-filters="sRGB">
<feFlood flood-opacity="0" result="BackgroundImageFix"/>
<feBlend mode="normal" in="SourceGraphic" in2="BackgroundImageFix" result="shape"/>
<feGaussianBlur stdDeviation="74.5" result="effect1_foregroundBlur_136_1794"/>
</filter>
<filter id="filter1_d_136_1794" x="-28.218" y="-36.2302" width="264.434" height="280.37" filterUnits="userSpaceOnUse" color-interpolation-filters="sRGB">
<feFlood flood-opacity="0" result="BackgroundImageFix"/>
<feColorMatrix in="SourceAlpha" type="matrix" values="0 0 0 0 0 0 0 0 0 0 0 0 0 0 0 0 0 0 127 0" result="hardAlpha"/>
<feOffset/>
<feGaussianBlur stdDeviation="31"/>
<feComposite in2="hardAlpha" operator="out"/>
<feColorMatrix type="matrix" values="0 0 0 0 0.2375 0 0 0 0 1 0 0 0 0 0.31375 0 0 0 0.02 0"/>
<feBlend mode="normal" in2="BackgroundImageFix" result="effect1_dropShadow_136_1794"/>
<feBlend mode="normal" in="SourceGraphic" in2="effect1_dropShadow_136_1794" result="shape"/>
</filter>
<filter id="filter2_d_136_1794" x="-28.218" y="-36.2302" width="264.434" height="280.37" filterUnits="userSpaceOnUse" color-interpolation-filters="sRGB">
<feFlood flood-opacity="0" result="BackgroundImageFix"/>
<feColorMatrix in="SourceAlpha" type="matrix" values="0 0 0 0 0 0 0 0 0 0 0 0 0 0 0 0 0 0 127 0" result="hardAlpha"/>
<feOffset/>
<feGaussianBlur stdDeviation="31"/>
<feComposite in2="hardAlpha" operator="out"/>
<feColorMatrix type="matrix" values="0 0 0 0 0.2375 0 0 0 0 1 0 0 0 0 0.31375 0 0 0 0.02 0"/>
<feBlend mode="normal" in2="BackgroundImageFix" result="effect1_dropShadow_136_1794"/>
<feBlend mode="normal" in="SourceGraphic" in2="effect1_dropShadow_136_1794" result="shape"/>
</filter>
<filter id="filter3_d_136_1794" x="-10.0195" y="-15.9556" width="228.038" height="239.844" filterUnits="userSpaceOnUse" color-interpolation-filters="sRGB">
<feFlood flood-opacity="0" result="BackgroundImageFix"/>
<feColorMatrix in="SourceAlpha" type="matrix" values="0 0 0 0 0 0 0 0 0 0 0 0 0 0 0 0 0 0 127 0" result="hardAlpha"/>
<feOffset/>
<feGaussianBlur stdDeviation="31"/>
<feComposite in2="hardAlpha" operator="out"/>
<feColorMatrix type="matrix" values="0 0 0 0 0.2375 0 0 0 0 1 0 0 0 0 0.31375 0 0 0 0.02 0"/>
<feBlend mode="normal" in2="BackgroundImageFix" result="effect1_dropShadow_136_1794"/>
<feBlend mode="normal" in="SourceGraphic" in2="effect1_dropShadow_136_1794" result="shape"/>
</filter>
<filter id="filter4_d_136_1794" x="-10.0195" y="-15.9556" width="228.038" height="239.844" filterUnits="userSpaceOnUse" color-interpolation-filters="sRGB">
<feFlood flood-opacity="0" result="BackgroundImageFix"/>
<feColorMatrix in="SourceAlpha" type="matrix" values="0 0 0 0 0 0 0 0 0 0 0 0 0 0 0 0 0 0 127 0" result="hardAlpha"/>
<feOffset/>
<feGaussianBlur stdDeviation="31"/>
<feComposite in2="hardAlpha" operator="out"/>
<feColorMatrix type="matrix" values="0 0 0 0 0.2375 0 0 0 0 1 0 0 0 0 0.31375 0 0 0 0.02 0"/>
<feBlend mode="normal" in2="BackgroundImageFix" result="effect1_dropShadow_136_1794"/>
<feBlend mode="normal" in="SourceGraphic" in2="effect1_dropShadow_136_1794" result="shape"/>
</filter>
<linearGradient id="paint0_linear_136_1794" x1="103.999" y1="25.7698" x2="103.999" y2="182.14" gradientUnits="userSpaceOnUse">
<stop stop-color="#3DFF50"/>
<stop offset="0.546875" stop-color="#00D154"/>
<stop offset="1" stop-color="#43D100" stop-opacity="0"/>
</linearGradient>
<linearGradient id="paint1_linear_136_1794" x1="103.999" y1="25.7698" x2="103.999" y2="182.14" gradientUnits="userSpaceOnUse">
<stop stop-color="#3DFF50"/>
<stop offset="0.546875" stop-color="#00D154"/>
<stop offset="1" stop-color="#43D100" stop-opacity="0"/>
</linearGradient>
<linearGradient id="paint2_linear_136_1794" x1="103.999" y1="46.0444" x2="103.999" y2="161.888" gradientUnits="userSpaceOnUse">
<stop stop-color="#27A433"/>
<stop offset="0.546875" stop-color="#1C6238"/>
<stop offset="1" stop-opacity="0"/>
</linearGradient>
<linearGradient id="paint3_linear_136_1794" x1="103.999" y1="46.0444" x2="103.999" y2="161.888" gradientUnits="userSpaceOnUse">
<stop stop-color="#27A468"/>
<stop offset="0.463542" stop-color="#1C6238"/>
<stop offset="1" stop-color="#11771C" stop-opacity="0"/>
</linearGradient>
</defs>
</svg>
