<svg width="37" height="36" viewBox="0 0 37 36" fill="none" xmlns="http://www.w3.org/2000/svg">
<path d="M19.1125 26.625C14.5299 26.625 10.8 22.8962 10.8 18.3125C10.8 13.7287 14.5299 10 19.1125 10C23.695 10 27.425 13.7287 27.425 18.3125C27.425 22.8962 23.695 26.625 19.1125 26.625ZM19.1125 13C15.8385 13 13.55 15.2261 13.55 18.5C13.55 21.7739 15.8385 24 19.1125 24C22.3864 24 24.55 21.5864 24.55 18.3125C24.55 15.0386 22.3864 13 19.1125 13Z" fill="white"/>
<path d="M28.0187 10.5625C29.0025 10.5625 29.8 9.765 29.8 8.78125C29.8 7.79749 29.0025 7 28.0187 7C27.035 7 26.2375 7.79749 26.2375 8.78125C26.2375 9.765 27.035 10.5625 28.0187 10.5625Z" fill="white"/>
<rect x="1.29999" y="0.5" width="35" height="35" rx="9.5" stroke="white"/>
</svg>
