<svg width="37" height="36" viewBox="0 0 37 36" fill="none" xmlns="http://www.w3.org/2000/svg">
<rect x="0.700012" y="0.5" width="35" height="35" rx="9.5" fill="#161617"/>
<path d="M26.3534 22.0618C27.251 23.1588 27.3507 24.6548 26.7524 25.8515C26.154 27.148 24.7578 27.9459 23.2618 27.9459C22.0651 27.9459 20.9681 27.4472 20.27 26.4499L17.1784 22.7599V23.9567C17.1784 26.051 15.2835 27.9459 13.0895 27.9459C10.9951 27.9459 9.20001 26.2505 9.20001 24.1561V11.7897C9.20001 9.6954 10.9951 8 13.0895 8C15.2835 8 17.1784 9.89486 17.1784 11.9892V13.884L20.27 9.49594C20.9681 8.49865 22.1648 8 23.3616 8C24.8575 8 26.154 8.79783 26.8521 10.0943C27.4505 11.3908 27.251 12.787 26.4532 13.884L23.1621 17.9729L26.3534 22.0618Z" fill="white"/>
<rect x="0.700012" y="0.5" width="35" height="35" rx="9.5" stroke="white"/>
</svg>
