<svg width="209" height="209" viewBox="0 0 209 209" fill="none" xmlns="http://www.w3.org/2000/svg">
<path d="M207.433 104.5C207.181 91.1651 201.647 78.4753 192.046 69.2174C182.445 59.9596 169.563 54.8906 156.228 55.1237C153.702 55.1237 151.003 55.2979 148.39 55.5591C126.445 58.7812 111.815 74.5433 103.716 86.6479C95.4434 74.5433 80.7263 58.7812 58.9554 55.5591C56.3429 55.2979 53.7304 55.1237 51.1179 55.1237C37.7977 54.9139 24.9375 59.9932 15.3556 69.2486C5.7738 78.504 0.251879 91.1805 0 104.5C0.251879 117.82 5.7738 130.496 15.3556 139.751C24.9375 149.007 37.7977 154.086 51.1179 153.876C53.7304 153.876 56.3429 153.702 59.1296 153.354C81.0746 150.219 95.7046 134.457 103.89 122.352C112.163 134.457 126.793 150.219 148.651 153.441C151.351 153.702 153.876 153.876 156.576 153.876C169.851 154.016 182.644 148.906 192.17 139.658C201.695 130.41 207.181 117.774 207.433 104.5ZM56.43 135.85C54.6884 136.198 52.6854 136.198 50.9438 136.198C42.2802 136.386 33.8938 133.141 27.6133 127.17C21.3328 121.199 17.6675 112.988 17.4167 104.326C17.69 95.656 21.3743 87.4446 27.6687 81.4763C33.9631 75.508 42.3588 72.2654 51.0308 72.4533C52.7725 72.4533 54.6883 72.6275 56.5171 72.8016C77.1559 75.8496 89.7829 96.0529 94.05 104.326C89.6959 112.599 77.0688 133.063 56.5171 135.85H56.43ZM113.208 104.5C117.475 96.4012 130.103 76.0237 150.741 72.9758C152.483 72.6275 154.399 72.6275 156.14 72.6275C160.448 72.4999 164.738 73.2239 168.765 74.758C172.793 76.292 176.477 78.6059 179.608 81.567C182.739 84.528 185.255 88.078 187.011 92.0134C188.767 95.9488 189.729 100.192 189.842 104.5C189.568 113.17 185.884 121.381 179.59 127.35C173.295 133.318 164.9 136.56 156.228 136.372C154.486 136.372 152.57 136.198 150.828 136.024C130.277 132.976 117.563 112.599 113.295 104.5H113.208ZM36.6621 109.638H67.4896V99.5362H36.7492V109.638H36.6621ZM159.711 109.638H170.074V99.5362H159.624V89.1733H149.783V99.6233H139.333V109.638H149.783V119.914H159.798V109.725L159.711 109.638Z" fill="url(#paint0_linear_107_1120)"/>
<defs>
<linearGradient id="paint0_linear_107_1120" x1="103.716" y1="55.116" x2="103.716" y2="153.883" gradientUnits="userSpaceOnUse">
<stop stop-color="#6562FF"/>
<stop offset="1" stop-color="#00237D"/>
</linearGradient>
</defs>
</svg>
