<svg width="133" height="133" viewBox="0 0 133 133" fill="none" xmlns="http://www.w3.org/2000/svg">
<g clip-path="url(#clip0_207_217)">
<path d="M123.279 127.815C115.325 118.403 101.072 111.227 83.8457 108.298C82.161 98.2096 79.153 93.4965 79.0743 93.3653C80.3859 92.7503 81.9686 92.5404 83.7757 92.9398C85.9793 93.4353 87.4833 94.6041 88.3956 96.0848C88.6609 96.5162 89.3371 96.3704 89.4158 95.8691C89.5295 95.1346 89.4945 94.333 89.2438 93.444C88.6142 91.2317 86.8916 89.3925 84.6473 88.9087C83.1811 88.5968 81.7238 88.8387 80.4937 89.4916C81.6334 88.5064 83.0529 87.702 84.7813 87.1394C88.5122 85.9444 91.7651 86.5273 94.2951 88.1421C94.7236 88.4132 95.2482 88.0197 95.1112 87.53C94.6886 86.0114 93.8521 84.522 92.3014 83.1549C89.6898 80.8581 86.0551 79.8613 82.7527 80.9543C81.6888 81.307 80.7211 81.8316 79.8787 82.4816C79.9399 82.4029 80.007 82.3213 80.0682 82.2455C82.502 79.3862 85.4255 78.1503 88.3082 78.0804C88.9349 78.0658 89.2147 77.2526 88.7337 76.8474C87.7107 75.9963 86.4515 75.3259 84.8163 74.9762C81.1379 74.1921 77.2671 75.2939 74.9295 78.2378C74.09 79.29 73.5071 80.4763 73.169 81.7005C72.178 80.8989 71.0179 80.2781 69.7179 79.9108C66.1036 78.8848 62.3173 80.2489 59.7873 83.0267C58.6943 84.2247 58.0618 85.4751 57.7266 86.7255C57.5517 87.3697 58.2921 87.8914 58.8488 87.5242C61.2185 85.9385 64.2819 85.2623 67.8874 86.1542C67.9865 86.1834 68.0827 86.2096 68.1818 86.2329C67.1179 86.1921 66.0278 86.332 64.9523 86.6672C61.6324 87.702 59.2598 90.6284 58.4757 94.0182C58.0268 95.9711 58.1901 97.6296 58.6972 99.0753C58.8809 99.6 59.6037 99.6116 59.8194 99.0986C60.9591 96.3646 63.2413 94.0532 66.9139 92.8727C68.6424 92.316 70.2659 92.144 71.7641 92.2781C70.3796 92.4617 69.0563 93.1176 68.0507 94.2281C66.5058 95.9303 66.1823 98.4224 66.9605 100.591C67.2724 101.465 67.7213 102.142 68.246 102.675C68.5957 103.034 69.2253 102.76 69.1874 102.261C69.0563 100.521 69.6013 98.7139 71.1024 97.0233C72.2596 95.7263 73.577 94.8926 74.912 94.7061C74.9091 94.7061 77.0252 99.9031 77.3196 107.403C73.7956 107.041 70.1755 106.84 66.4796 106.84C57.4293 106.84 48.8221 107.968 41.0338 110.011C42.6486 74.8217 64.3052 51.5095 64.3314 51.3929C66.9984 53.1563 69.2515 55.8554 70.7089 59.6475C72.6064 64.5734 72.28 69.0359 70.5632 72.7201C70.0706 73.7753 71.2248 74.8916 72.2858 74.399C73.8714 73.6645 75.4017 72.554 76.8066 70.9072C80.2839 66.8236 81.6334 61.1048 79.6601 56.1206C78.3718 52.8678 76.0138 50.3523 73.1544 48.8046C76.5355 49.7431 79.9429 51.4541 83.2628 54.0861C90.3106 59.6854 93.3915 66.6225 93.6334 73.5159C93.6801 74.81 95.2686 75.3901 96.0993 74.3932C98.3932 71.6533 100.122 68.1615 100.743 63.5241C101.821 55.4765 99.052 47.1374 92.6541 42.1386C90.5846 40.518 88.3198 39.32 85.9589 38.5272C86.195 38.5505 86.4282 38.5767 86.6672 38.6C95.2715 39.6056 101.41 43.5989 105.281 49.0115C106.184 50.2736 108.233 49.7344 108.379 48.1925C108.679 45.1845 108.318 41.9374 106.919 38.4164C103.684 30.2668 96.5365 24.1808 87.7952 23.4404C84.6589 23.1752 81.6072 23.5716 78.7857 24.5072C79.0626 21.5458 78.7536 18.4941 77.7888 15.5036C75.0985 7.15571 67.5581 1.56813 58.8896 0.247747C55.045 -0.335204 51.7251 0.0845207 48.8046 1.11051C47.423 1.59436 47.3588 3.60263 48.7142 4.1506C54.9576 6.66894 60.3237 11.7639 63.285 20.0185C63.3667 20.2429 63.4424 20.4674 63.5153 20.6889C62.2095 18.5699 60.5306 16.6316 58.4845 14.9847C52.1682 9.881 43.4181 9.06779 35.8252 11.933C31.3131 13.6352 28.2585 16.2118 26.0928 19.1732C25.3933 20.1293 26.2152 21.4205 27.3724 21.1786C34.2337 19.7474 41.8062 21.1319 48.9649 26.8274C52.2819 29.4623 54.7215 32.3916 56.4004 35.4783C54.2493 33.0358 51.2617 31.3103 47.8019 30.7943C42.5 29.9986 37.233 32.6015 34.0413 36.9182C32.7618 38.6438 32.0331 40.3722 31.6717 42.0715C31.4268 43.2258 32.788 44.106 33.7207 43.3802C36.9211 40.891 41.1796 39.5765 46.3941 40.311C50.6758 40.9144 53.9608 42.672 56.3159 45.0941C55.8962 45.4526 29.7683 64.9494 12.65 124.644C11.6065 125.635 10.6359 126.666 9.74398 127.721C7.9893 129.8 9.47291 133 12.1865 133H120.808C123.48 133.015 125.008 129.861 123.279 127.815Z" fill="url(#paint0_linear_207_217)"/>
</g>
<defs>
<linearGradient id="paint0_linear_207_217" x1="66.4991" y1="-0.0171356" x2="66.4991" y2="133" gradientUnits="userSpaceOnUse">
<stop stop-color="#6AF8FF"/>
<stop offset="1" stop-color="#4CE251"/>
</linearGradient>
<clipPath id="clip0_207_217">
<rect width="133" height="133" fill="white"/>
</clipPath>
</defs>
</svg>
