<svg width="144" height="144" viewBox="0 0 144 144" fill="none" xmlns="http://www.w3.org/2000/svg">
<path fill-rule="evenodd" clip-rule="evenodd" d="M72 0C32.22 0 0 32.22 0 72C0 103.86 20.61 130.77 49.23 140.31C52.83 140.94 54.18 138.78 54.18 136.89C54.18 135.18 54.09 129.51 54.09 123.48C36 126.81 31.32 119.07 29.88 115.02C29.07 112.95 25.56 106.56 22.5 104.85C19.98 103.5 16.38 100.17 22.41 100.08C28.08 99.99 32.13 105.3 33.48 107.46C39.96 118.35 50.31 115.29 54.45 113.4C55.08 108.72 56.97 105.57 59.04 103.77C43.02 101.97 26.28 95.76 26.28 68.22C26.28 60.39 29.07 53.91 33.66 48.87C32.94 47.07 30.42 39.69 34.38 29.79C34.38 29.79 40.41 27.9 54.18 37.17C59.94 35.55 66.06 34.74 72.18 34.74C78.3 34.74 84.42 35.55 90.18 37.17C103.95 27.81 109.98 29.79 109.98 29.79C113.94 39.69 111.42 47.07 110.7 48.87C115.29 53.91 118.08 60.3 118.08 68.22C118.08 95.85 101.25 101.97 85.23 103.77C87.84 106.02 90.09 110.34 90.09 117.09C90.09 126.72 90 134.46 90 136.89C90 138.78 91.35 141.03 94.95 140.31C123.39 130.77 144 103.77 144 72C144 32.22 111.78 0 72 0Z" fill="url(#paint0_angular_107_918)"/>
<defs>
<radialGradient id="paint0_angular_107_918" cx="0" cy="0" r="1" gradientUnits="userSpaceOnUse" gradientTransform="translate(72 70.2238) rotate(90) scale(70.2238 72)">
<stop offset="0.34375" stop-color="#BE2BF1"/>
<stop offset="1" stop-color="#2587E9" stop-opacity="0.17"/>
</radialGradient>
</defs>
</svg>
