<svg width="36" height="36" viewBox="0 0 36 36" fill="none" xmlns="http://www.w3.org/2000/svg">
<rect x="0.5" y="0.5" width="35" height="35" rx="9.5" fill="#161617"/>
<path fill-rule="evenodd" clip-rule="evenodd" d="M18.0083 8C12.474 8 8 12.5069 8 18.0826C8 22.5396 10.8666 26.3123 14.8434 27.6476C15.3406 27.748 15.5227 27.4306 15.5227 27.1637C15.5227 26.93 15.5063 26.1288 15.5063 25.2939C12.7222 25.895 12.1425 24.092 12.1425 24.092C11.6951 22.9235 11.0321 22.6232 11.0321 22.6232C10.1209 22.0055 11.0985 22.0055 11.0985 22.0055C12.1093 22.0723 12.6397 23.0405 12.6397 23.0405C13.5343 24.5761 14.9759 24.1422 15.5559 23.8751C15.6386 23.224 15.9039 22.7733 16.1856 22.523C13.9651 22.2893 11.6289 21.4213 11.6289 17.5484C11.6289 16.4466 12.0263 15.5452 12.6561 14.8442C12.5567 14.5939 12.2087 13.5587 12.7556 12.1732C12.7556 12.1732 13.6007 11.9061 15.5061 13.2082C16.3219 12.9875 17.1632 12.8752 18.0083 12.8743C18.8533 12.8743 19.7148 12.9912 20.5102 13.2082C22.4159 11.9061 23.2609 12.1732 23.2609 12.1732C23.8079 13.5587 23.4596 14.5939 23.3603 14.8442C24.0066 15.5452 24.3876 16.4466 24.3876 17.5484C24.3876 21.4213 22.0514 22.2725 19.8143 22.523C20.179 22.8401 20.4936 23.441 20.4936 24.3926C20.4936 25.7446 20.4773 26.8298 20.4773 27.1635C20.4773 27.4306 20.6596 27.748 21.1566 27.6478C25.1333 26.3121 28 22.5396 28 18.0826C28.0163 12.5069 23.526 8 18.0083 8Z" fill="white"/>
<rect x="0.5" y="0.5" width="35" height="35" rx="9.5" stroke="white"/>
</svg>
