<svg width="37" height="36" viewBox="0 0 37 36" fill="none" xmlns="http://www.w3.org/2000/svg">
<rect x="0.899994" y="0.5" width="35" height="35" rx="9.5" fill="#161617"/>
<path d="M14.1 27C14.1 27.57 13.72 27.95 13.15 27.95H9.34999C8.77999 27.95 8.39999 27.57 8.39999 27V15.6C8.39999 15.03 8.77999 14.65 9.34999 14.65H13.15C13.72 14.65 14.1 15.03 14.1 15.6V27ZM11.25 13.7C9.63499 13.7 8.39999 12.465 8.39999 10.85C8.39999 9.235 9.63499 8 11.25 8C12.865 8 14.1 9.235 14.1 10.85C14.1 12.465 12.865 13.7 11.25 13.7ZM27.4 27C27.4 27.57 27.02 27.95 26.45 27.95H23.6C23.03 27.95 22.65 27.57 22.65 27V23.675V22.725V20.825C22.65 20.065 21.985 19.4 21.225 19.4C20.465 19.4 19.8 20.065 19.8 20.825V22.725V23.675V27C19.8 27.57 19.42 27.95 18.85 27.95H16C15.43 27.95 15.05 27.57 15.05 27V15.6C15.05 15.03 15.43 14.65 16 14.65H19.8C20.085 14.65 20.275 14.745 20.465 14.935C21.035 14.745 21.605 14.65 22.175 14.65C25.025 14.65 27.4 17.025 27.4 19.875V27Z" fill="white"/>
<rect x="0.899994" y="0.5" width="35" height="35" rx="9.5" stroke="white"/>
</svg>
