<svg width="36" height="36" viewBox="0 0 36 36" fill="none" xmlns="http://www.w3.org/2000/svg">
<rect x="0.5" y="0.5" width="35" height="35" rx="9.5" fill="#161617"/>
<path d="M27 11.8096C26.3018 12.1189 25.5508 12.3252 24.7587 12.4228C25.564 11.9447 26.1836 11.1821 26.4744 10.2813C25.7208 10.723 24.8859 11.0476 23.9977 11.2185C23.2884 10.4665 22.2768 10 21.1559 10C19.0027 10 17.2575 11.7299 17.2575 13.863C17.2575 14.1649 17.2929 14.4588 17.3594 14.7443C14.1201 14.5818 11.2471 13.0419 9.32514 10.7051C8.98739 11.2761 8.79741 11.9447 8.79741 12.6503C8.79741 13.9913 9.48399 15.1718 10.531 15.8673C9.89193 15.8478 9.29031 15.67 8.76363 15.385C8.76363 15.3966 8.76363 15.414 8.76363 15.4304C8.76363 17.3044 10.1078 18.8649 11.8894 19.22C11.5638 19.3092 11.2197 19.3588 10.8651 19.3588C10.6133 19.3588 10.3679 19.3303 10.1305 19.2876C10.6265 20.8191 12.0657 21.9384 13.7708 21.9716C12.4367 23.006 10.7564 23.6256 8.92934 23.6256C8.61375 23.6256 8.30503 23.6076 8 23.5707C9.72622 24.6636 11.7759 25.3043 13.9761 25.3043C21.1453 25.3043 25.0674 19.4169 25.0674 14.3095C25.0674 14.1422 25.0622 13.9754 25.0542 13.8108C25.8195 13.2704 26.4791 12.5885 27 11.8096Z" fill="white"/>
<rect x="0.5" y="0.5" width="35" height="35" rx="9.5" stroke="white"/>
</svg>
