<svg width="37" height="36" viewBox="0 0 37 36" fill="none" xmlns="http://www.w3.org/2000/svg">
<rect x="1.10001" y="0.5" width="35" height="35" rx="9.5" fill="#161617"/>
<path d="M18.0941 12C18.0941 12 12.1558 12 10.6654 12.3631C9.86738 12.5721 9.21027 13.1882 8.98729 13.9473C8.60001 15.3446 8.60001 18.2383 8.60001 18.2383C8.60001 18.2383 8.60001 21.1429 8.98729 22.5182C9.21027 23.2773 9.85565 23.8824 10.6654 24.0914C12.1676 24.4655 18.0941 24.4655 18.0941 24.4655C18.0941 24.4655 24.0442 24.4655 25.5346 24.1024C26.3443 23.8934 26.9897 23.2993 27.2009 22.5292C27.6 21.1429 27.6 18.2493 27.6 18.2493C27.6 18.2493 27.6117 15.3446 27.2009 13.9473C26.9897 13.1882 26.3443 12.5831 25.5346 12.3851C24.0442 12 18.0941 12 18.0941 12ZM16.2047 15.5648L21.1454 18.2383L16.2047 20.9007V15.5648Z" fill="white"/>
<rect x="1.10001" y="0.5" width="35" height="35" rx="9.5" stroke="white"/>
</svg>
